<svg width="197" height="26" viewBox="0 0 197 26" fill="none" xmlns="http://www.w3.org/2000/svg">
<path d="M30.8474 1.03008C35.5919 1.51345 39.5574 4.66239 41.0826 9.1535C41.9461 11.7064 41.9085 14.6348 40.9746 17.1361C39.4917 21.1204 36.0518 24.0347 31.9267 24.795C30.0308 25.1422 28.1208 25.0484 26.2765 24.5134C23.1932 23.617 20.4807 21.3644 19.0025 18.4689C16.8437 14.25 17.374 9.13004 20.3493 5.46018C22.3016 3.04334 24.9343 1.55099 28.0316 1.09109C28.6041 1.00661 30.2701 0.969072 30.8474 1.03008ZM28.7121 2.53181C24.2961 2.93071 20.5652 6.14535 19.4952 10.4628C18.8992 12.8656 19.1902 15.4936 20.2883 17.6664C22.6676 22.3828 28.0175 24.6072 33.0202 22.9647C36.2536 21.8994 38.8488 19.201 39.792 15.9254C40.8761 12.1617 39.8061 8.14453 36.9904 5.43672C34.7565 3.28737 31.8 2.24554 28.7121 2.53181Z" fill="white" stroke="white"/>
<path fill-rule="evenodd" clip-rule="evenodd" d="M21.3574 4.35233C19.4474 2.5088 16.9375 1.31296 14.1609 1.03008C13.5837 0.96907 11.9177 1.00661 11.3451 1.09109C8.24782 1.55099 5.61509 3.04333 3.66284 5.46018C0.687542 9.13004 0.157242 14.25 2.31598 18.4689C3.79424 21.3644 6.50675 23.617 9.58999 24.5134C11.4343 25.0484 13.3443 25.1422 15.2402 24.795C17.5751 24.3646 19.6905 23.2442 21.3557 21.6302C20.9936 21.2809 20.6528 20.9092 20.3362 20.5178C19.2091 21.6169 17.8407 22.4682 16.3337 22.9647C11.3311 24.6072 5.98114 22.3828 3.60184 17.6664C2.5037 15.4936 2.21274 12.8656 2.80873 10.4628C3.87872 6.14535 7.60958 2.93071 12.0256 2.53181C15.1135 2.24554 18.0701 3.28737 20.3039 5.43672C20.316 5.44833 20.328 5.45997 20.34 5.47163C20.3431 5.46782 20.3462 5.464 20.3493 5.46018C20.6676 5.06617 21.0039 4.69673 21.3574 4.35233Z" fill="white"/>
<path d="M14.1609 1.03008L14.1083 1.52731L14.1102 1.5275L14.1609 1.03008ZM21.3574 4.35233L21.7063 4.71047L22.0757 4.35066L21.7047 3.99257L21.3574 4.35233ZM11.3451 1.09109L11.2722 0.596443L11.2717 0.59651L11.3451 1.09109ZM3.66284 5.46018L4.05124 5.77507L4.0518 5.77437L3.66284 5.46018ZM2.31598 18.4689L2.7613 18.2416L2.76109 18.2412L2.31598 18.4689ZM9.58999 24.5134L9.45041 24.9935L9.45069 24.9936L9.58999 24.5134ZM15.2402 24.795L15.3303 25.2868L15.3309 25.2867L15.2402 24.795ZM21.3557 21.6302L21.7037 21.9893L22.075 21.6294L21.7029 21.2704L21.3557 21.6302ZM20.3362 20.5178L20.725 20.2034L20.38 19.7767L19.9872 20.1598L20.3362 20.5178ZM16.3337 22.9647L16.4897 23.4398L16.4902 23.4396L16.3337 22.9647ZM3.60184 17.6664L4.04825 17.4412L4.04808 17.4409L3.60184 17.6664ZM2.80873 10.4628L3.29403 10.5832L3.29405 10.5831L2.80873 10.4628ZM12.0256 2.53181L12.0706 3.02978L12.0718 3.02967L12.0256 2.53181ZM20.3039 5.43672L19.9572 5.79702L19.9573 5.79711L20.3039 5.43672ZM20.34 5.47163L19.9917 5.83039L20.3845 6.21168L20.7288 5.78608L20.34 5.47163ZM20.3493 5.46018L20.7377 5.77506L20.7383 5.77437L20.3493 5.46018ZM14.1102 1.5275C16.7746 1.79896 19.1802 2.94588 21.0102 4.7121L21.7047 3.99257C19.7145 2.07173 17.1004 0.826971 14.2116 0.532654L14.1102 1.5275ZM11.4181 1.58573C11.6704 1.5485 12.2023 1.51822 12.7622 1.50591C13.3226 1.49359 13.8547 1.50051 14.1083 1.52731L14.2134 0.532848C13.8898 0.498642 13.3003 0.493834 12.7403 0.506149C12.1798 0.518473 11.5924 0.549198 11.2722 0.596443L11.4181 1.58573ZM4.0518 5.77437C5.92405 3.45656 8.44346 2.02742 11.4186 1.58566L11.2717 0.59651C8.05217 1.07456 5.30614 2.63011 3.27389 5.146L4.0518 5.77437ZM2.76109 18.2412C0.692144 14.1977 1.20105 9.2906 4.05124 5.77507L3.27445 5.1453C0.174038 8.96947 -0.377661 14.3023 1.87086 18.6967L2.76109 18.2412ZM9.72957 24.0333C6.78042 23.1759 4.17767 21.0159 2.7613 18.2416L1.87066 18.6963C3.41082 21.713 6.23308 24.0582 9.45041 24.9935L9.72957 24.0333ZM15.1502 24.3031C13.3299 24.6366 11.4984 24.5464 9.72928 24.0332L9.45069 24.9936C11.3702 25.5504 13.3587 25.6479 15.3303 25.2868L15.1502 24.3031ZM21.0078 21.2712C19.4113 22.8185 17.3848 23.8913 15.1496 24.3032L15.3309 25.2867C17.7655 24.838 19.9697 23.6699 21.7037 21.9893L21.0078 21.2712ZM21.7029 21.2704C21.3555 20.9352 21.0285 20.5787 20.725 20.2034L19.9475 20.8322C20.277 21.2397 20.6318 21.6266 21.0086 21.9901L21.7029 21.2704ZM16.4902 23.4396C18.0728 22.9182 19.5063 22.0255 20.6853 20.8757L19.9872 20.1598C18.912 21.2083 17.6087 22.0182 16.1772 22.4898L16.4902 23.4396ZM3.15543 17.8916C5.64568 22.8279 11.2512 25.1597 16.4897 23.4398L16.1777 22.4897C11.4109 24.0548 6.3166 21.9377 4.04825 17.4412L3.15543 17.8916ZM2.32344 10.3424C1.69905 12.8597 2.00259 15.6106 3.15559 17.892L4.04808 17.4409C3.0048 15.3766 2.72642 12.8715 3.29403 10.5832L2.32344 10.3424ZM11.9806 2.03384C7.35088 2.45204 3.44432 5.81959 2.32342 10.3425L3.29405 10.5831C4.31311 6.4711 7.86828 3.40937 12.0706 3.02978L11.9806 2.03384ZM20.6506 5.07642C18.3125 2.8268 15.2128 1.73419 11.9795 2.03395L12.0718 3.02967C15.0143 2.75689 17.8276 3.74793 19.9572 5.79702L20.6506 5.07642ZM20.6883 5.11288C20.6757 5.10069 20.6631 5.08851 20.6505 5.07633L19.9573 5.79711C19.9688 5.80816 19.9803 5.81925 19.9917 5.83039L20.6883 5.11288ZM20.7288 5.78608C20.7318 5.78237 20.7347 5.7787 20.7377 5.77506L19.9609 5.14531C19.9577 5.1493 19.9545 5.15326 19.9513 5.15719L20.7288 5.78608ZM20.7383 5.77437C21.0443 5.39549 21.3673 5.04076 21.7063 4.71047L21.0085 3.9942C20.6405 4.35271 20.2908 4.73686 19.9603 5.146L20.7383 5.77437Z" fill="white"/>
<path d="M29.3931 4.05228C29.318 4.09452 29.2147 4.16491 29.1631 4.20714C28.9426 4.40425 28.9472 4.32916 28.9472 8.86251C28.9472 13.5601 28.9332 13.3442 29.2335 13.5648C29.4729 13.7431 34.7711 15.9957 34.9495 15.9957C35.583 15.9957 35.935 15.2355 35.5173 14.7615C35.4094 14.6348 34.9589 14.4283 32.9174 13.5554L30.449 12.4995V8.54339C30.449 5.26774 30.4396 4.56381 30.3833 4.4324C30.2378 4.08044 29.7169 3.87864 29.3931 4.05228Z" fill="white"/>
<path d="M14.1655 19H12.6825V10.395C12.6825 9.90071 12.6882 9.50408 12.6997 9.20518C12.7112 8.90628 12.7285 8.59588 12.7515 8.27398C12.5675 8.45793 12.4008 8.61312 12.2514 8.73958C12.1019 8.86604 11.9122 9.02699 11.6823 9.22243L10.3717 10.2916L9.57849 9.27416L12.9067 6.6875H14.1655V19Z" fill="white"/>
<path d="M53.2077 19V7.64H56.4717C58.2104 7.64 59.6504 8.17867 60.7917 9.256C61.9437 10.3333 62.5197 11.688 62.5197 13.32C62.5197 14.952 61.9437 16.3067 60.7917 17.384C59.6504 18.4613 58.2104 19 56.4717 19H53.2077ZM54.6957 17.608H56.4717C57.8264 17.608 58.9197 17.208 59.7517 16.408C60.5944 15.5973 61.0157 14.568 61.0157 13.32C61.0157 12.072 60.5944 11.048 59.7517 10.248C58.9197 9.43733 57.8264 9.032 56.4717 9.032H54.6957V17.608ZM64.739 19V7.64H71.363V9.048H66.227V12.488H70.403V13.896H66.227V17.592H71.363V19H64.739ZM79.9332 8.664C80.6586 9.34667 81.0212 10.2107 81.0212 11.256C81.0212 12.3013 80.6586 13.1653 79.9332 13.848C79.2186 14.52 78.2799 14.856 77.1172 14.856H75.1332V19H73.6452V7.64H77.1172C78.2799 7.64 79.2186 7.98133 79.9332 8.664ZM78.8932 12.856C79.3306 12.44 79.5492 11.9067 79.5492 11.256C79.5492 10.6053 79.3306 10.072 78.8932 9.656C78.4666 9.24 77.8746 9.032 77.1172 9.032H75.1332V13.48H77.1172C77.8746 13.48 78.4666 13.272 78.8932 12.856ZM88.1082 17.784C89.3562 17.784 90.3962 17.352 91.2282 16.488C92.0709 15.624 92.4922 14.568 92.4922 13.32C92.4922 12.072 92.0709 11.016 91.2282 10.152C90.3962 9.288 89.3562 8.856 88.1082 8.856C86.8709 8.856 85.8309 9.288 84.9882 10.152C84.1562 11.016 83.7402 12.072 83.7402 13.32C83.7402 14.568 84.1562 15.624 84.9882 16.488C85.8309 17.352 86.8709 17.784 88.1082 17.784ZM88.1082 19.192C86.4762 19.192 85.0896 18.6267 83.9482 17.496C82.8069 16.3547 82.2362 14.9627 82.2362 13.32C82.2362 11.6773 82.8069 10.2907 83.9482 9.16C85.0896 8.01867 86.4762 7.448 88.1082 7.448C89.7509 7.448 91.1376 8.01867 92.2682 9.16C93.4096 10.2907 93.9802 11.6773 93.9802 13.32C93.9802 14.9627 93.4096 16.3547 92.2682 17.496C91.1376 18.6267 89.7509 19.192 88.1082 19.192ZM99.2637 19.192C98.3571 19.192 97.5411 19 96.8157 18.616C96.1011 18.232 95.5891 17.7413 95.2797 17.144L96.4797 16.248C97.1517 17.2827 98.0904 17.8 99.2957 17.8C99.9037 17.8 100.405 17.6507 100.8 17.352C101.194 17.0427 101.392 16.6267 101.392 16.104C101.392 15.2293 100.848 14.5893 99.7597 14.184L98.2557 13.608C97.3597 13.2773 96.7037 12.8667 96.2877 12.376C95.8824 11.8747 95.6797 11.24 95.6797 10.472C95.6797 9.55467 96.0104 8.824 96.6717 8.28C97.3437 7.72533 98.1971 7.448 99.2317 7.448C99.9251 7.448 100.56 7.592 101.136 7.88C101.712 8.15733 102.181 8.53067 102.544 9L101.456 9.96C100.826 9.21333 100.074 8.84 99.1997 8.84C98.6237 8.84 98.1384 8.98933 97.7437 9.288C97.3491 9.576 97.1517 9.94933 97.1517 10.408C97.1517 10.8667 97.2851 11.2293 97.5517 11.496C97.8184 11.7627 98.2557 12.008 98.8637 12.232L100.24 12.76C101.114 13.0907 101.77 13.5173 102.208 14.04C102.656 14.5627 102.88 15.2293 102.88 16.04C102.88 16.9893 102.538 17.752 101.856 18.328C101.184 18.904 100.32 19.192 99.2637 19.192ZM105.067 19V7.64H106.555V19H105.067ZM111.871 19V9.048H108.335V7.64H116.863V9.048H113.327V19H111.871ZM121.973 19V7.64H128.581V9.048H123.461V12.488H127.509V13.896H123.461V19H121.973ZM135.374 17.784C136.622 17.784 137.662 17.352 138.494 16.488C139.337 15.624 139.758 14.568 139.758 13.32C139.758 12.072 139.337 11.016 138.494 10.152C137.662 9.288 136.622 8.856 135.374 8.856C134.137 8.856 133.097 9.288 132.254 10.152C131.422 11.016 131.006 12.072 131.006 13.32C131.006 14.568 131.422 15.624 132.254 16.488C133.097 17.352 134.137 17.784 135.374 17.784ZM135.374 19.192C133.742 19.192 132.355 18.6267 131.214 17.496C130.073 16.3547 129.502 14.9627 129.502 13.32C129.502 11.6773 130.073 10.2907 131.214 9.16C132.355 8.01867 133.742 7.448 135.374 7.448C137.017 7.448 138.403 8.01867 139.534 9.16C140.675 10.2907 141.246 11.6773 141.246 13.32C141.246 14.9627 140.675 16.3547 139.534 17.496C138.403 18.6267 137.017 19.192 135.374 19.192ZM143.489 19V7.64H147.361C148.406 7.64 149.233 7.928 149.841 8.504C150.449 9.06933 150.753 9.82667 150.753 10.776C150.753 11.608 150.502 12.2907 150.001 12.824C149.51 13.3573 148.822 13.688 147.937 13.816L152.321 19H150.449L146.081 13.832H144.977V19H143.489ZM144.977 12.504H147.185C147.846 12.504 148.358 12.36 148.721 12.072C149.084 11.7733 149.265 11.3413 149.265 10.776C149.265 10.2107 149.084 9.77867 148.721 9.48C148.358 9.17067 147.846 9.016 147.185 9.016H144.977V12.504ZM157.223 19V7.64H161.095C162.141 7.64 162.967 7.928 163.575 8.504C164.183 9.06933 164.487 9.82667 164.487 10.776C164.487 11.608 164.237 12.2907 163.735 12.824C163.245 13.3573 162.557 13.688 161.671 13.816L166.055 19H164.183L159.815 13.832H158.711V19H157.223ZM158.711 12.504H160.919C161.581 12.504 162.093 12.36 162.455 12.072C162.818 11.7733 162.999 11.3413 162.999 10.776C162.999 10.2107 162.818 9.77867 162.455 9.48C162.093 9.17067 161.581 9.016 160.919 9.016H158.711V12.504ZM167.38 19V7.64H174.004V9.048H168.868V12.488H173.044V13.896H168.868V17.592H174.004V19H167.38ZM185.966 19H184.686L177.774 10.152V19H176.286V7.64H177.582L184.494 16.488V7.64H185.966V19ZM191.293 19V9.048H187.757V7.64H196.285V9.048H192.749V19H191.293Z" fill="white"/>
</svg>
