<svg width="146" height="83" viewBox="0 0 146 83" fill="none" xmlns="http://www.w3.org/2000/svg">
<rect x="0.5" y="0.5" width="145" height="82" rx="5.5" fill="#F9F9F9"/>
<rect x="0.5" y="0.5" width="145" height="82" rx="5.5" stroke="#F5F5F5"/>
<path d="M107.5 41.5C107.5 52.5555 97.9644 61.4999 86.1781 61.4999C81.203 61.4999 76.6425 59.8888 73.0297 57.2222C78.0048 53.5555 81.1438 47.8888 81.1438 41.5C81.1438 35.1111 77.9455 29.4444 73.0297 25.7778C76.6425 23.1111 81.203 21.5 86.1781 21.5C97.9644 21.5 107.5 30.5 107.5 41.5Z" fill="#F79E1B"/>
<path d="M73.0297 25.7778C73.0297 25.7778 73.0297 25.7778 73.0297 25.7778C77.9455 29.4444 81.1438 35.1111 81.1438 41.5C81.1438 47.8888 78.0048 53.5555 73.0297 57.2222L72.9702 57.2222C68.0544 53.611 64.8562 47.8889 64.8562 41.5001C64.8562 35.1112 68.0545 29.4445 72.9704 25.7779C72.9703 25.7778 72.9704 25.7779 72.9704 25.7779L73.0297 25.7778Z" fill="#FF5F00"/>
<path d="M64.8562 41.5001C64.8562 35.1112 68.0545 29.4445 72.9704 25.7779C69.3575 23.1112 64.797 21.5001 59.8219 21.5001C48.0356 21.5001 38.5 30.4445 38.5 41.5C38.5 52.5556 48.0356 61.5 59.8219 61.5C64.797 61.5 69.3573 59.8888 72.9702 57.2222C68.0544 53.611 64.8562 47.8889 64.8562 41.5001Z" fill="#EB001B"/>
</svg>
