<svg width="146" height="83" viewBox="0 0 146 83" fill="none" xmlns="http://www.w3.org/2000/svg">
<rect x="0.5" y="0.5" width="145" height="82" rx="5.5" fill="#F9F9F9"/>
<rect x="0.5" y="0.5" width="145" height="82" rx="5.5" stroke="#F5F5F5"/>
<path d="M93.8831 27.7364C92.4131 27.1488 90.0816 26.5 87.1987 26.5C79.8389 26.5 74.6563 30.4543 74.6245 36.1077C74.5634 40.2788 78.3351 42.5955 81.1561 43.9863C84.0394 45.4075 85.0196 46.3351 85.0196 47.6018C84.9902 49.5474 82.6897 50.4442 80.544 50.4442C77.5685 50.4442 75.9743 49.9818 73.5514 48.8994L72.5701 48.4354L71.5272 54.9544C73.2751 55.7568 76.4955 56.4688 79.8389 56.5C87.6588 56.5 92.7498 52.6069 92.8101 46.5823C92.8398 43.2764 90.8482 40.7432 86.5544 38.6733C83.9477 37.3445 82.3514 36.4485 82.3514 35.089C82.382 33.853 83.7016 32.5871 86.644 32.5871C89.0668 32.525 90.847 33.1118 92.1955 33.699L92.8696 34.0074L93.8831 27.7364Z" fill="#3362AB"/>
<path d="M66.8666 56.0672H59.4139L64.0754 27.0264H71.5276L66.8666 56.0672Z" fill="#3362AB"/>
<path fill-rule="evenodd" clip-rule="evenodd" d="M112.988 27.0264H107.223C105.445 27.0264 104.095 27.5512 103.328 29.4359L92.2578 56.0668H100.078C100.078 56.0668 101.365 52.4825 101.642 51.7105H111.21C111.424 52.7301 112.1 56.0668 112.1 56.0668H119L112.988 27.0264ZM103.788 45.7791C104.402 44.1107 106.764 37.6537 106.764 37.6537C106.751 37.6786 106.847 37.4103 106.991 37.0103L106.992 37.0054L106.993 37.0022C107.207 36.4046 107.525 35.5177 107.744 34.8734L108.265 37.3757C108.265 37.3757 109.676 44.3271 109.983 45.7791H103.788Z" fill="#3362AB"/>
<path d="M53.1892 27.0264L45.8906 46.8295L45.0931 42.8132L45.0923 42.8107L42.4864 29.4676C42.0573 27.6128 40.7385 27.0876 39.1132 27.0264H27.1227L27 27.6132C29.9245 28.3667 32.5401 29.4525 34.832 30.8025L41.4745 56.0364H49.3555L61.0698 27.0264H53.1892Z" fill="#3362AB"/>
</svg>
