<svg width="90" height="90" viewBox="0 0 90 90" fill="none" xmlns="http://www.w3.org/2000/svg">
<rect width="90" height="90" rx="45" fill="white"/>
<path d="M48.0072 24.2561C47.8975 24.2835 47.0085 24.7116 46.0316 25.2L44.2591 26.0945L35.6158 26.1219C25.9902 26.1549 26.7859 26.1219 25.9298 26.528C24.7115 27.1097 23.8335 28.2786 23.6524 29.5738C23.6085 29.8646 23.5975 34.7323 23.6085 45.7683C23.6249 60.953 23.6304 61.5622 23.7292 61.9299C24.2395 63.8506 25.6719 65.2335 27.6475 65.7274C27.9877 65.8152 29.2883 65.8207 44.5883 65.8372C55.4597 65.8536 61.3481 65.8372 61.7103 65.8042C62.0121 65.7713 62.4017 65.7109 62.5828 65.6616C64.5145 65.1512 65.9743 63.5597 66.32 61.5896C66.4408 60.8927 66.4463 37.2183 66.3255 36.5817C66.1609 35.7311 65.8042 35.078 65.1676 34.436C64.4981 33.7664 63.6639 33.3713 62.72 33.278L62.3414 33.2396V31.6372C62.3414 29.8427 62.2865 29.3488 62.0121 28.6628C61.6334 27.7189 60.8322 26.8902 59.9048 26.4786C59.1475 26.1439 59.345 26.1603 54.7188 26.1274L50.4767 26.0945L49.9993 25.2768C49.7414 24.8268 49.456 24.4097 49.3737 24.3439C49.2475 24.2506 49.1267 24.2286 48.7152 24.2177C48.4353 24.2122 48.117 24.2286 48.0072 24.2561ZM48.567 27.2744C49.0774 28.1853 51.5304 33.086 51.5304 33.1847C51.5304 33.2396 49.6645 33.2561 42.3822 33.2561C37.103 33.2561 33.2615 33.2341 33.3109 33.2067C33.3877 33.1573 33.942 32.9049 36.3292 31.8292C36.9493 31.5494 37.9975 31.0719 38.6615 30.7756C39.3255 30.4738 39.995 30.1719 40.1432 30.1006C43.6609 28.5201 45.1426 27.8286 46.7231 27.0439C47.4475 26.6872 48.0566 26.4128 48.0786 26.4347C48.106 26.4622 48.3255 26.8408 48.567 27.2744ZM40.4944 28.1744C40.467 28.1963 39.792 28.4817 37.6902 29.3542C35.0341 30.4573 33.2999 31.1762 32.2956 31.5933C31.7524 31.8183 31.0225 32.1201 30.6767 32.2683C30.331 32.4109 29.6395 32.6908 29.1456 32.8994L28.2511 33.2725L27.7078 33.2451C27.2414 33.2231 27.1206 33.1957 26.8133 33.042C26.1274 32.7073 25.7103 32.1036 25.6444 31.3518C25.5676 30.4518 26.2097 28.9921 26.9176 28.4542C27.3182 28.1414 26.9944 28.1579 34.0188 28.1524C37.5914 28.1524 40.5054 28.1634 40.4944 28.1744ZM58.9993 28.3061C59.3725 28.4542 59.7456 28.767 59.9761 29.1347C60.267 29.5847 60.3164 29.9689 60.2999 31.7085L60.2835 33.2286L57.0127 33.2451L53.7365 33.2561L53.5993 32.9707C53.5225 32.8116 52.9627 31.6756 52.3591 30.4408C51.7499 29.2116 51.256 28.1908 51.256 28.1744C51.256 28.1634 52.9298 28.1579 54.9767 28.1634L58.692 28.1799L58.9993 28.3061ZM25.82 34.8091C26.0121 34.9353 26.517 35.1219 26.9176 35.2042C27.2524 35.2756 29.6066 35.2866 44.9505 35.2866C60.8926 35.2866 62.6267 35.2975 62.8902 35.3744C63.4664 35.5445 63.8999 35.9231 64.1743 36.4939L64.3444 36.8506L64.3609 41.142L64.3773 45.439L63.4005 45.45C62.8627 45.4555 61.831 45.4609 61.1066 45.4664C60.0255 45.4719 59.7182 45.4884 59.378 45.5707C57.6658 45.9988 56.4804 47.3268 56.2444 49.0884C56.0524 50.5427 56.7877 52.1067 58.0389 52.9189C59.0267 53.5555 59.378 53.6158 62.1822 53.6158H64.3719V57.3311C64.3719 61.425 64.3719 61.3975 64.0206 62.1219C63.8011 62.5774 63.2085 63.1866 62.7475 63.428C62.0395 63.7957 63.4993 63.7683 44.9999 63.7683C26.5005 63.7683 27.9603 63.7957 27.2524 63.428C26.8133 63.1975 26.1987 62.5719 25.9902 62.1439C25.9024 61.9683 25.7816 61.65 25.7267 61.4414C25.6335 61.0738 25.628 60.4811 25.628 47.8975C25.628 40.6591 25.6444 34.7378 25.6719 34.7378C25.6938 34.7378 25.7597 34.7707 25.82 34.8091ZM64.3719 49.5549V51.5853H62.2591C60.931 51.5853 60.042 51.5634 59.8609 51.525C59.0542 51.3549 58.3956 50.6524 58.2804 49.8457C58.1706 49.0445 58.5164 48.2652 59.1585 47.8536C59.6524 47.5353 59.6963 47.5299 62.1383 47.5299L64.3719 47.5244V49.5549Z" fill="#80BB63"/>
<path d="M60.3054 49.3628C60.2999 49.8292 60.2999 50.2792 60.2944 50.3616L60.2889 50.5152L61.3152 50.5317L62.3414 50.5427V49.5274V48.5122H61.3261H60.3109L60.3054 49.3628Z" fill="#80BB63"/>
</svg>
