<svg width="37" height="36" viewBox="0 0 37 36" fill="none" xmlns="http://www.w3.org/2000/svg">
<circle cx="25.2329" cy="10.5494" r="2.57673" transform="rotate(45 25.2329 10.5494)" fill="#1BACE4"/>
<circle cx="32.3984" cy="3.64405" r="2.57673" transform="rotate(45 32.3984 3.64405)" fill="#1BACE4"/>
<circle cx="7.91602" cy="28.1266" r="2.57673" transform="rotate(45 7.91602 28.1266)" fill="#1BACE4"/>
<circle cx="21.5889" cy="14.1934" r="2.57673" transform="rotate(45 21.5889 14.1934)" fill="#1BACE4"/>
<circle cx="28.7544" cy="7.28809" r="2.57673" transform="rotate(45 28.7544 7.28809)" fill="#1BACE4"/>
<circle cx="4.27197" cy="31.7706" r="2.57673" transform="rotate(45 4.27197 31.7706)" fill="#1BACE4"/>
<circle cx="32.3987" cy="31.7706" r="2.57673" transform="rotate(135 32.3987 31.7706)" fill="#1BACE4"/>
<circle cx="28.7544" cy="28.1266" r="2.57673" transform="rotate(135 28.7544 28.1266)" fill="#1BACE4"/>
<circle cx="7.28808" cy="7.28815" r="2.57673" transform="rotate(135 7.28808 7.28815)" fill="#1BACE4"/>
<circle cx="3.64404" cy="3.64405" r="2.57673" transform="rotate(135 3.64404 3.64405)" fill="#1BACE4"/>
<circle cx="18.2053" cy="17.5772" r="2.57673" transform="rotate(45 18.2053 17.5772)" fill="#1BACE4"/>
<circle cx="14.561" cy="21.2212" r="2.57673" transform="rotate(45 14.561 21.2212)" fill="#1BACE4"/>
<circle cx="11.1772" cy="24.605" r="2.57673" transform="rotate(45 11.1772 24.605)" fill="#1BACE4"/>
<circle cx="25.2329" cy="24.605" r="2.57673" transform="rotate(135 25.2329 24.605)" fill="#1BACE4"/>
<circle cx="21.5889" cy="20.9609" r="2.57673" transform="rotate(135 21.5889 20.9609)" fill="#1BACE4"/>
<circle cx="18.2053" cy="17.5772" r="2.57673" transform="rotate(135 18.2053 17.5772)" fill="#1BACE4"/>
<circle cx="14.5613" cy="13.9331" r="2.57673" transform="rotate(135 14.5613 13.9331)" fill="#1BACE4"/>
<circle cx="11.1772" cy="10.5494" r="2.57673" transform="rotate(135 11.1772 10.5494)" fill="#1BACE4"/>
</svg>
