<svg width="454" height="272" viewBox="0 0 454 272" fill="none" xmlns="http://www.w3.org/2000/svg">
<path d="M51 168C51 167.44 51.1867 166.973 51.56 166.6C51.96 166.2 52.44 166 53 166C53.56 166 54.0267 166.2 54.4 166.6C54.7467 166.947 54.9467 167.36 55 167.84C55.0267 167.36 55.2133 166.947 55.56 166.6C55.96 166.2 56.44 166 57 166C57.56 166 58.0267 166.2 58.4 166.6C58.7467 166.947 58.9467 167.36 59 167.84C59.0267 167.36 59.2133 166.947 59.56 166.6C59.96 166.2 60.44 166 61 166C61.56 166 62.0267 166.2 62.4 166.6C62.8 166.973 63 167.44 63 168C63 168.56 62.8 169.04 62.4 169.44C62.0267 169.813 61.56 170 61 170C60.44 170 59.96 169.813 59.56 169.44C59.2133 169.093 59.0267 168.68 59 168.2C58.9467 168.68 58.7467 169.093 58.4 169.44C58.0267 169.813 57.56 170 57 170C56.44 170 55.96 169.813 55.56 169.44C55.2133 169.093 55.0267 168.68 55 168.2C54.9467 168.68 54.7467 169.093 54.4 169.44C54.0267 169.813 53.56 170 53 170C52.44 170 51.96 169.813 51.56 169.44C51.1867 169.04 51 168.56 51 168ZM51 152C51 151.44 51.1867 150.973 51.56 150.6C51.96 150.2 52.44 150 53 150C53.56 150 54.0267 150.2 54.4 150.6C54.8 150.973 55 151.44 55 152C55 151.44 55.1867 150.973 55.56 150.6C55.96 150.2 56.44 150 57 150C57.56 150 58.0267 150.2 58.4 150.6C58.7467 150.947 58.9467 151.36 59 151.84C59.0267 151.36 59.2133 150.947 59.56 150.6C59.96 150.2 60.44 150 61 150C61.56 150 62.0267 150.2 62.4 150.6C62.8 150.973 63 151.44 63 152C63 152.56 62.8 153.04 62.4 153.44C62.0267 153.813 61.56 154 61 154C60.44 154 59.96 153.813 59.56 153.44C59.2133 153.093 59.0267 152.68 59 152.2C58.9467 152.68 58.7467 153.093 58.4 153.44C58.0267 153.813 57.56 154 57 154C56.44 154 55.96 153.813 55.56 153.44C55.2133 153.093 55.0267 152.68 55 152.2C54.9467 152.68 54.7467 153.093 54.4 153.44C54.0267 153.813 53.56 154 53 154C52.44 154 51.96 153.813 51.56 153.44C51.1867 153.04 51 152.56 51 152ZM55 160C55 159.44 55.1867 158.973 55.56 158.6C55.96 158.2 56.44 158 57 158C57.56 158 58.0267 158.2 58.4 158.6C58.7467 158.947 58.9467 159.36 59 159.84C59.0267 159.36 59.2133 158.947 59.56 158.6C59.96 158.2 60.44 158 61 158C61.56 158 62.0267 158.2 62.4 158.6C62.8 158.973 63 159.44 63 160C63 160.56 62.8 161.04 62.4 161.44C62.0267 161.813 61.56 162 61 162C60.44 162 59.96 161.813 59.56 161.44C59.2133 161.093 59.0267 160.68 59 160.2C58.9467 160.68 58.7467 161.093 58.4 161.44C58.0267 161.813 57.56 162 57 162C56.44 162 55.96 161.813 55.56 161.44C55.1867 161.04 55 160.56 55 160ZM63 156C63 155.44 63.1867 154.973 63.56 154.6C63.96 154.2 64.44 154 65 154C65.56 154 66.0267 154.2 66.4 154.6C66.8 154.973 67 155.44 67 156C67 156.56 66.8 157.04 66.4 157.44C66.0267 157.813 65.56 158 65 158C64.44 158 63.96 157.813 63.56 157.44C63.1867 157.04 63 156.56 63 156ZM63 164C63 163.44 63.1867 162.973 63.56 162.6C63.96 162.2 64.44 162 65 162C65.56 162 66.0267 162.2 66.4 162.6C66.8 162.973 67 163.44 67 164C67 164.56 66.8 165.04 66.4 165.44C66.0267 165.813 65.56 166 65 166C64.44 166 63.96 165.813 63.56 165.44C63.1867 165.04 63 164.56 63 164ZM47 164C47 163.44 47.1867 162.973 47.56 162.6C47.96 162.2 48.44 162 49 162C49.56 162 50.0267 162.2 50.4 162.6C50.8 162.973 51 163.44 51 164C51 164.56 50.8 165.04 50.4 165.44C50.0267 165.813 49.56 166 49 166C48.44 166 47.96 165.813 47.56 165.44C47.1867 165.04 47 164.56 47 164ZM47 156C47 155.44 47.1867 154.973 47.56 154.6C47.96 154.2 48.44 154 49 154C49.56 154 50.0267 154.2 50.4 154.6C50.8 154.973 51 155.44 51 156C51 156.56 50.8 157.04 50.4 157.44C50.0267 157.813 49.56 158 49 158C48.44 158 47.96 157.813 47.56 157.44C47.1867 157.04 47 156.56 47 156ZM86.9844 164C86.9844 163.467 87.1577 163.013 87.5044 162.64C87.8244 162.293 88.251 162.08 88.7844 162C88.2777 161.947 87.8644 161.76 87.5444 161.44C87.2244 161.12 87.0377 160.707 86.9844 160.2C86.9044 160.733 86.691 161.16 86.3444 161.48C85.971 161.827 85.5177 162 84.9844 162C84.451 162 83.9977 161.827 83.6244 161.48C83.251 161.16 83.0377 160.733 82.9844 160.2C82.9044 160.733 82.691 161.16 82.3444 161.48C81.971 161.827 81.5177 162 80.9844 162C80.451 162 79.9977 161.827 79.6244 161.48C79.251 161.16 79.0377 160.733 78.9844 160.2C78.9044 160.733 78.691 161.16 78.3444 161.48C77.971 161.827 77.5177 162 76.9844 162C76.4244 162 75.9444 161.813 75.5444 161.44C75.171 161.04 74.9844 160.56 74.9844 160C74.9844 159.44 75.171 158.973 75.5444 158.6C75.9444 158.2 76.4244 158 76.9844 158C77.5444 158 78.011 158.2 78.3844 158.6C78.7844 158.973 78.9844 159.44 78.9844 160C78.9844 159.44 79.171 158.973 79.5444 158.6C79.9444 158.2 80.4244 158 80.9844 158C81.5444 158 82.011 158.2 82.3844 158.6C82.7844 158.973 82.9844 159.44 82.9844 160C82.9844 159.44 83.171 158.973 83.5444 158.6C83.9444 158.2 84.4244 158 84.9844 158C85.5177 158 85.971 158.173 86.3444 158.52C86.7177 158.867 86.931 159.307 86.9844 159.84C87.0377 159.36 87.2244 158.947 87.5444 158.6C87.8644 158.28 88.2777 158.08 88.7844 158C88.251 157.947 87.8244 157.733 87.5044 157.36C87.1577 156.987 86.9844 156.533 86.9844 156C86.9844 155.44 87.171 154.973 87.5444 154.6C87.9444 154.2 88.4244 154 88.9844 154C89.5444 154 90.011 154.2 90.3844 154.6C90.7844 154.973 90.9844 155.44 90.9844 156C90.9844 156.533 90.811 156.987 90.4644 157.36C90.1177 157.733 89.691 157.947 89.1844 158C89.691 158.08 90.1177 158.293 90.4644 158.64C90.811 159.013 90.9844 159.467 90.9844 160C90.9844 160.533 90.811 160.987 90.4644 161.36C90.1177 161.733 89.691 161.947 89.1844 162C89.691 162.08 90.1177 162.293 90.4644 162.64C90.811 163.013 90.9844 163.467 90.9844 164C90.9844 164.533 90.811 164.987 90.4644 165.36C90.1177 165.733 89.691 165.947 89.1844 166C89.691 166.08 90.1177 166.293 90.4644 166.64C90.811 167.013 90.9844 167.467 90.9844 168C90.9844 168.56 90.7844 169.04 90.3844 169.44C90.011 169.813 89.5444 170 88.9844 170C88.451 170 87.9977 169.827 87.6244 169.48C87.251 169.16 87.0377 168.733 86.9844 168.2C86.9044 168.733 86.691 169.16 86.3444 169.48C85.971 169.827 85.5177 170 84.9844 170C84.451 170 83.9977 169.827 83.6244 169.48C83.251 169.16 83.0377 168.733 82.9844 168.2C82.9044 168.733 82.691 169.16 82.3444 169.48C81.971 169.827 81.5177 170 80.9844 170C80.451 170 79.9977 169.827 79.6244 169.48C79.251 169.16 79.0377 168.733 78.9844 168.2C78.9044 168.733 78.691 169.16 78.3444 169.48C77.971 169.827 77.5177 170 76.9844 170C76.4244 170 75.9444 169.813 75.5444 169.44C75.171 169.04 74.9844 168.56 74.9844 168C74.9844 167.44 75.171 166.973 75.5444 166.6C75.9444 166.2 76.4244 166 76.9844 166C77.5177 166 77.971 166.173 78.3444 166.52C78.7177 166.867 78.931 167.307 78.9844 167.84C79.0377 167.307 79.251 166.867 79.6244 166.52C79.9977 166.173 80.451 166 80.9844 166C81.5444 166 82.011 166.2 82.3844 166.6C82.731 166.947 82.931 167.36 82.9844 167.84C83.011 167.36 83.1977 166.947 83.5444 166.6C83.9444 166.2 84.4244 166 84.9844 166C85.5444 166 86.011 166.2 86.3844 166.6C86.731 166.947 86.931 167.36 86.9844 167.84C87.011 167.387 87.1844 166.987 87.5044 166.64C87.8244 166.293 88.251 166.08 88.7844 166C88.251 165.947 87.8244 165.733 87.5044 165.36C87.1577 164.987 86.9844 164.533 86.9844 164ZM74.9844 152C74.9844 151.44 75.171 150.973 75.5444 150.6C75.9444 150.2 76.4244 150 76.9844 150C77.5444 150 78.011 150.2 78.3844 150.6C78.7844 150.973 78.9844 151.44 78.9844 152C78.9844 151.44 79.171 150.973 79.5444 150.6C79.9444 150.2 80.4244 150 80.9844 150C81.5444 150 82.011 150.2 82.3844 150.6C82.731 150.947 82.931 151.36 82.9844 151.84C83.011 151.36 83.1977 150.947 83.5444 150.6C83.9444 150.2 84.4244 150 84.9844 150C85.5444 150 86.011 150.2 86.3844 150.6C86.7844 150.973 86.9844 151.44 86.9844 152C86.9844 152.56 86.7844 153.04 86.3844 153.44C86.011 153.813 85.5444 154 84.9844 154C84.451 154 83.9977 153.827 83.6244 153.48C83.251 153.16 83.0377 152.733 82.9844 152.2C82.9044 152.733 82.691 153.16 82.3444 153.48C81.971 153.827 81.5177 154 80.9844 154C80.451 154 79.9977 153.827 79.6244 153.48C79.251 153.16 79.0377 152.733 78.9844 152.2C78.9044 152.733 78.691 153.16 78.3444 153.48C77.971 153.827 77.5177 154 76.9844 154C76.4244 154 75.9444 153.813 75.5444 153.44C75.171 153.04 74.9844 152.56 74.9844 152ZM70.9844 164C70.9844 163.44 71.171 162.973 71.5444 162.6C71.9444 162.2 72.4244 162 72.9844 162C73.5444 162 74.011 162.2 74.3844 162.6C74.7844 162.973 74.9844 163.44 74.9844 164C74.9844 164.56 74.7844 165.04 74.3844 165.44C74.011 165.813 73.5444 166 72.9844 166C72.4244 166 71.9444 165.813 71.5444 165.44C71.171 165.04 70.9844 164.56 70.9844 164ZM110.969 164C110.969 163.44 111.155 162.973 111.529 162.6C111.875 162.253 112.289 162.053 112.769 162C112.289 161.973 111.875 161.787 111.529 161.44C111.155 161.04 110.969 160.56 110.969 160C110.969 159.44 111.155 158.973 111.529 158.6C111.875 158.253 112.289 158.053 112.769 158C112.289 157.973 111.875 157.787 111.529 157.44C111.155 157.04 110.969 156.56 110.969 156C110.969 155.44 111.155 154.973 111.529 154.6C111.875 154.253 112.289 154.053 112.769 154C112.289 153.973 111.875 153.787 111.529 153.44C111.182 153.093 110.995 152.68 110.969 152.2C110.915 152.68 110.715 153.093 110.369 153.44C109.995 153.813 109.529 154 108.969 154C108.409 154 107.929 153.813 107.529 153.44C107.182 153.093 106.995 152.68 106.969 152.2C106.915 152.68 106.715 153.093 106.369 153.44C105.995 153.813 105.529 154 104.969 154C104.409 154 103.929 153.813 103.529 153.44C103.182 153.093 102.995 152.68 102.969 152.2C102.915 152.68 102.715 153.093 102.369 153.44C101.995 153.813 101.529 154 100.969 154C100.409 154 99.9288 153.813 99.5288 153.44C99.1821 153.093 98.9954 152.68 98.9688 152.2C98.9154 152.68 98.7154 153.093 98.3688 153.44C98.0221 153.787 97.6088 153.973 97.1288 154C97.6088 154.053 98.0221 154.253 98.3688 154.6C98.7688 154.973 98.9688 155.44 98.9688 156C98.9688 156.56 98.7688 157.04 98.3688 157.44C98.0221 157.787 97.6088 157.973 97.1288 158C97.6088 158.053 98.0221 158.253 98.3688 158.6C98.7688 158.973 98.9688 159.44 98.9688 160C98.9688 160.56 98.7688 161.04 98.3688 161.44C98.0221 161.787 97.6088 161.973 97.1288 162C97.6088 162.053 98.0221 162.253 98.3688 162.6C98.7688 162.973 98.9688 163.44 98.9688 164C98.9688 164.56 98.7688 165.04 98.3688 165.44C98.0221 165.787 97.6088 165.973 97.1288 166C97.6088 166.053 98.0221 166.253 98.3688 166.6C98.7688 166.973 98.9688 167.44 98.9688 168C98.9688 168.56 98.7688 169.04 98.3688 169.44C97.9954 169.813 97.5288 170 96.9688 170C96.4088 170 95.9288 169.813 95.5288 169.44C95.1554 169.04 94.9688 168.56 94.9688 168C94.9688 167.44 95.1554 166.973 95.5288 166.6C95.8754 166.253 96.2888 166.053 96.7688 166C96.2888 165.973 95.8754 165.787 95.5288 165.44C95.1554 165.04 94.9688 164.56 94.9688 164C94.9688 163.44 95.1554 162.973 95.5288 162.6C95.8754 162.253 96.2888 162.053 96.7688 162C96.2888 161.973 95.8754 161.787 95.5288 161.44C95.1554 161.04 94.9688 160.56 94.9688 160C94.9688 159.44 95.1554 158.973 95.5288 158.6C95.8754 158.253 96.2888 158.053 96.7688 158C96.2888 157.973 95.8754 157.787 95.5288 157.44C95.1554 157.04 94.9688 156.56 94.9688 156C94.9688 155.44 95.1554 154.973 95.5288 154.6C95.8754 154.253 96.2888 154.053 96.7688 154C96.2888 153.973 95.8754 153.787 95.5288 153.44C95.1554 153.04 94.9688 152.56 94.9688 152C94.9688 151.44 95.1554 150.973 95.5288 150.6C95.9288 150.2 96.4088 150 96.9688 150C97.5288 150 97.9954 150.2 98.3688 150.6C98.7688 150.973 98.9688 151.44 98.9688 152C98.9688 151.44 99.1554 150.973 99.5288 150.6C99.9288 150.2 100.409 150 100.969 150C101.529 150 101.995 150.2 102.369 150.6C102.769 150.973 102.969 151.44 102.969 152C102.969 151.44 103.155 150.973 103.529 150.6C103.929 150.2 104.409 150 104.969 150C105.529 150 105.995 150.2 106.369 150.6C106.769 150.973 106.969 151.44 106.969 152C106.969 151.44 107.155 150.973 107.529 150.6C107.929 150.2 108.409 150 108.969 150C109.529 150 109.995 150.2 110.369 150.6C110.715 150.947 110.915 151.36 110.969 151.84C110.995 151.36 111.182 150.947 111.529 150.6C111.929 150.2 112.409 150 112.969 150C113.529 150 113.995 150.2 114.369 150.6C114.769 150.973 114.969 151.44 114.969 152C114.969 152.56 114.769 153.04 114.369 153.44C114.022 153.787 113.609 153.973 113.129 154C113.609 154.053 114.022 154.253 114.369 154.6C114.769 154.973 114.969 155.44 114.969 156C114.969 156.56 114.769 157.04 114.369 157.44C114.022 157.787 113.609 157.973 113.129 158C113.609 158.053 114.022 158.253 114.369 158.6C114.769 158.973 114.969 159.44 114.969 160C114.969 160.56 114.769 161.04 114.369 161.44C114.022 161.787 113.609 161.973 113.129 162C113.609 162.053 114.022 162.253 114.369 162.6C114.769 162.973 114.969 163.44 114.969 164C114.969 164.56 114.769 165.04 114.369 165.44C114.022 165.787 113.609 165.973 113.129 166C113.609 166.053 114.022 166.253 114.369 166.6C114.769 166.973 114.969 167.44 114.969 168C114.969 168.56 114.769 169.04 114.369 169.44C113.995 169.813 113.529 170 112.969 170C112.409 170 111.929 169.813 111.529 169.44C111.155 169.04 110.969 168.56 110.969 168C110.969 167.44 111.155 166.973 111.529 166.6C111.875 166.253 112.289 166.053 112.769 166C112.289 165.973 111.875 165.787 111.529 165.44C111.155 165.04 110.969 164.56 110.969 164ZM122.953 168C122.953 167.44 123.14 166.973 123.513 166.6C123.913 166.2 124.393 166 124.953 166C125.513 166 125.98 166.2 126.353 166.6C126.753 166.973 126.953 167.44 126.953 168C126.953 167.44 127.14 166.973 127.513 166.6C127.913 166.2 128.393 166 128.953 166C129.513 166 129.98 166.2 130.353 166.6C130.753 166.973 130.953 167.44 130.953 168C130.953 167.44 131.14 166.973 131.513 166.6C131.913 166.2 132.393 166 132.953 166C133.513 166 133.98 166.2 134.353 166.6C134.753 166.973 134.953 167.44 134.953 168C134.953 168.56 134.753 169.04 134.353 169.44C133.98 169.813 133.513 170 132.953 170C132.42 170 131.966 169.827 131.593 169.48C131.22 169.16 131.006 168.733 130.953 168.2C130.873 168.733 130.66 169.16 130.313 169.48C129.94 169.827 129.486 170 128.953 170C128.42 170 127.966 169.827 127.593 169.48C127.22 169.16 127.006 168.733 126.953 168.2C126.873 168.733 126.66 169.16 126.313 169.48C125.94 169.827 125.486 170 124.953 170C124.393 170 123.913 169.813 123.513 169.44C123.14 169.04 122.953 168.56 122.953 168ZM122.953 152C122.953 151.44 123.14 150.973 123.513 150.6C123.913 150.2 124.393 150 124.953 150C125.486 150 125.94 150.173 126.313 150.52C126.686 150.867 126.9 151.307 126.953 151.84C127.006 151.307 127.22 150.867 127.593 150.52C127.966 150.173 128.42 150 128.953 150C129.486 150 129.94 150.173 130.313 150.52C130.66 150.867 130.873 151.293 130.953 151.8C131.006 151.293 131.22 150.867 131.593 150.52C131.966 150.173 132.42 150 132.953 150C133.513 150 133.98 150.2 134.353 150.6C134.753 150.973 134.953 151.44 134.953 152C134.953 152.56 134.753 153.04 134.353 153.44C133.98 153.813 133.513 154 132.953 154C132.42 154 131.966 153.827 131.593 153.48C131.22 153.16 131.006 152.733 130.953 152.2C130.873 152.733 130.66 153.16 130.313 153.48C129.94 153.827 129.486 154 128.953 154C128.42 154 127.966 153.827 127.593 153.48C127.22 153.16 127.006 152.733 126.953 152.2C126.873 152.733 126.66 153.16 126.313 153.48C125.94 153.827 125.486 154 124.953 154C124.393 154 123.913 153.813 123.513 153.44C123.14 153.04 122.953 152.56 122.953 152ZM118.953 160C118.953 159.467 119.126 159.013 119.473 158.64C119.793 158.293 120.22 158.08 120.753 158C120.22 157.947 119.793 157.733 119.473 157.36C119.126 156.987 118.953 156.533 118.953 156C118.953 155.44 119.14 154.973 119.513 154.6C119.913 154.2 120.393 154 120.953 154C121.513 154 121.98 154.2 122.353 154.6C122.753 154.973 122.953 155.44 122.953 156C122.953 156.533 122.78 156.987 122.433 157.36C122.086 157.733 121.66 157.947 121.153 158C121.66 158.08 122.086 158.293 122.433 158.64C122.78 159.013 122.953 159.467 122.953 160C122.953 160.533 122.78 160.987 122.433 161.36C122.086 161.733 121.66 161.947 121.153 162C121.66 162.08 122.086 162.293 122.433 162.64C122.78 163.013 122.953 163.467 122.953 164C122.953 164.56 122.753 165.04 122.353 165.44C121.98 165.813 121.513 166 120.953 166C120.393 166 119.913 165.813 119.513 165.44C119.14 165.04 118.953 164.56 118.953 164C118.953 163.467 119.126 163.013 119.473 162.64C119.793 162.293 120.22 162.08 120.753 162C120.22 161.947 119.793 161.733 119.473 161.36C119.126 160.987 118.953 160.533 118.953 160ZM134.953 160C134.953 159.467 135.126 159.013 135.473 158.64C135.793 158.293 136.22 158.08 136.753 158C136.22 157.947 135.793 157.733 135.473 157.36C135.126 156.987 134.953 156.533 134.953 156C134.953 155.44 135.14 154.973 135.513 154.6C135.913 154.2 136.393 154 136.953 154C137.513 154 137.98 154.2 138.353 154.6C138.753 154.973 138.953 155.44 138.953 156C138.953 156.533 138.78 156.987 138.433 157.36C138.086 157.733 137.66 157.947 137.153 158C137.66 158.08 138.086 158.293 138.433 158.64C138.78 159.013 138.953 159.467 138.953 160C138.953 160.533 138.78 160.987 138.433 161.36C138.086 161.733 137.66 161.947 137.153 162C137.66 162.08 138.086 162.293 138.433 162.64C138.78 163.013 138.953 163.467 138.953 164C138.953 164.56 138.753 165.04 138.353 165.44C137.98 165.813 137.513 166 136.953 166C136.393 166 135.913 165.813 135.513 165.44C135.14 165.04 134.953 164.56 134.953 164C134.953 163.467 135.126 163.013 135.473 162.64C135.793 162.293 136.22 162.08 136.753 162C136.22 161.947 135.793 161.733 135.473 161.36C135.126 160.987 134.953 160.533 134.953 160ZM158.938 164C158.938 163.44 159.124 162.973 159.498 162.6C159.844 162.253 160.258 162.053 160.738 162C160.258 161.973 159.844 161.787 159.498 161.44C159.124 161.04 158.938 160.56 158.938 160C158.938 159.44 159.124 158.973 159.498 158.6C159.844 158.253 160.258 158.053 160.738 158C160.258 157.973 159.844 157.787 159.498 157.44C159.124 157.04 158.938 156.56 158.938 156C158.938 155.44 159.124 154.973 159.498 154.6C159.844 154.253 160.258 154.053 160.738 154C160.258 153.973 159.844 153.787 159.498 153.44C159.151 153.093 158.964 152.68 158.938 152.2C158.884 152.68 158.684 153.093 158.338 153.44C157.964 153.813 157.498 154 156.938 154C156.378 154 155.898 153.813 155.498 153.44C155.151 153.093 154.964 152.68 154.938 152.2C154.884 152.68 154.684 153.093 154.338 153.44C153.964 153.813 153.498 154 152.938 154C152.378 154 151.898 153.813 151.497 153.44C151.151 153.093 150.964 152.68 150.938 152.2C150.884 152.68 150.684 153.093 150.338 153.44C149.991 153.787 149.578 153.973 149.098 154C149.578 154.053 149.991 154.253 150.338 154.6C150.738 154.973 150.938 155.44 150.938 156C150.938 156.56 150.738 157.04 150.338 157.44C149.991 157.787 149.578 157.973 149.098 158C149.578 158.053 149.991 158.253 150.338 158.6C150.738 158.973 150.938 159.44 150.938 160C150.938 160.56 150.738 161.04 150.338 161.44C149.991 161.787 149.578 161.973 149.098 162C149.578 162.053 149.991 162.253 150.338 162.6C150.738 162.973 150.938 163.44 150.938 164C150.938 164.56 150.738 165.04 150.338 165.44C149.964 165.813 149.498 166 148.938 166C148.378 166 147.898 165.813 147.498 165.44C147.124 165.04 146.938 164.56 146.938 164C146.938 163.44 147.124 162.973 147.498 162.6C147.844 162.253 148.258 162.053 148.738 162C148.258 161.973 147.844 161.787 147.498 161.44C147.124 161.04 146.938 160.56 146.938 160C146.938 159.44 147.124 158.973 147.498 158.6C147.844 158.253 148.258 158.053 148.738 158C148.258 157.973 147.844 157.787 147.498 157.44C147.124 157.04 146.938 156.56 146.938 156C146.938 155.44 147.124 154.973 147.498 154.6C147.844 154.253 148.258 154.053 148.738 154C148.258 153.973 147.844 153.787 147.498 153.44C147.124 153.04 146.938 152.56 146.938 152C146.938 151.44 147.124 150.973 147.498 150.6C147.898 150.2 148.378 150 148.938 150C149.498 150 149.964 150.2 150.338 150.6C150.684 150.947 150.884 151.36 150.938 151.84C150.964 151.36 151.151 150.947 151.497 150.6C151.898 150.2 152.378 150 152.938 150C153.498 150 153.964 150.2 154.338 150.6C154.738 150.973 154.938 151.44 154.938 152C154.938 151.44 155.124 150.973 155.498 150.6C155.898 150.2 156.378 150 156.938 150C157.498 150 157.964 150.2 158.338 150.6C158.684 150.947 158.884 151.36 158.938 151.84C158.964 151.36 159.151 150.947 159.498 150.6C159.898 150.2 160.378 150 160.938 150C161.498 150 161.964 150.2 162.338 150.6C162.738 150.973 162.938 151.44 162.938 152C162.938 152.56 162.738 153.04 162.338 153.44C161.991 153.787 161.578 153.973 161.098 154C161.578 154.053 161.991 154.253 162.338 154.6C162.738 154.973 162.938 155.44 162.938 156C162.938 156.56 162.738 157.04 162.338 157.44C161.991 157.787 161.578 157.973 161.098 158C161.578 158.053 161.991 158.253 162.338 158.6C162.738 158.973 162.938 159.44 162.938 160C162.938 160.56 162.738 161.04 162.338 161.44C161.991 161.787 161.578 161.973 161.098 162C161.578 162.053 161.991 162.253 162.338 162.6C162.738 162.973 162.938 163.44 162.938 164C162.938 164.56 162.738 165.04 162.338 165.44C161.991 165.787 161.578 165.973 161.098 166C161.578 166.053 161.991 166.253 162.338 166.6C162.738 166.973 162.938 167.44 162.938 168C162.938 168.56 162.738 169.04 162.338 169.44C161.964 169.813 161.498 170 160.938 170C160.378 170 159.898 169.813 159.498 169.44C159.124 169.04 158.938 168.56 158.938 168C158.938 167.44 159.124 166.973 159.498 166.6C159.844 166.253 160.258 166.053 160.738 166C160.258 165.973 159.844 165.787 159.498 165.44C159.124 165.04 158.938 164.56 158.938 164ZM142.938 168C142.938 167.44 143.124 166.973 143.498 166.6C143.898 166.2 144.378 166 144.938 166C145.498 166 145.964 166.2 146.338 166.6C146.738 166.973 146.938 167.44 146.938 168C146.938 168.56 146.738 169.04 146.338 169.44C145.964 169.813 145.498 170 144.938 170C144.378 170 143.898 169.813 143.498 169.44C143.124 169.04 142.938 168.56 142.938 168ZM182.922 164C182.922 163.44 183.109 162.973 183.482 162.6C183.829 162.253 184.242 162.053 184.722 162C184.242 161.973 183.829 161.787 183.482 161.44C183.135 161.093 182.949 160.68 182.922 160.2C182.869 160.68 182.669 161.093 182.322 161.44C181.949 161.813 181.482 162 180.922 162C180.362 162 179.882 161.813 179.482 161.44C179.135 161.093 178.949 160.68 178.922 160.2C178.869 160.68 178.669 161.093 178.322 161.44C177.949 161.813 177.482 162 176.922 162C176.362 162 175.882 161.813 175.482 161.44C175.135 161.093 174.949 160.68 174.922 160.2C174.869 160.68 174.669 161.093 174.322 161.44C173.949 161.813 173.482 162 172.922 162C172.362 162 171.882 161.813 171.482 161.44C171.135 161.093 170.949 160.68 170.922 160.2C170.869 160.68 170.669 161.093 170.322 161.44C169.975 161.787 169.562 161.973 169.082 162C169.562 162.053 169.975 162.253 170.322 162.6C170.722 162.973 170.922 163.44 170.922 164C170.922 164.56 170.722 165.04 170.322 165.44C169.975 165.787 169.562 165.973 169.082 166C169.562 166.053 169.975 166.253 170.322 166.6C170.722 166.973 170.922 167.44 170.922 168C170.922 168.56 170.722 169.04 170.322 169.44C169.949 169.813 169.482 170 168.922 170C168.362 170 167.882 169.813 167.482 169.44C167.109 169.04 166.922 168.56 166.922 168C166.922 167.44 167.109 166.973 167.482 166.6C167.829 166.253 168.242 166.053 168.722 166C168.242 165.973 167.829 165.787 167.482 165.44C167.109 165.04 166.922 164.56 166.922 164C166.922 163.44 167.109 162.973 167.482 162.6C167.829 162.253 168.242 162.053 168.722 162C168.242 161.973 167.829 161.787 167.482 161.44C167.109 161.04 166.922 160.56 166.922 160C166.922 159.44 167.109 158.973 167.482 158.6C167.829 158.253 168.242 158.053 168.722 158C168.242 157.973 167.829 157.787 167.482 157.44C167.109 157.04 166.922 156.56 166.922 156C166.922 155.44 167.109 154.973 167.482 154.6C167.829 154.253 168.242 154.053 168.722 154C168.242 153.973 167.829 153.787 167.482 153.44C167.109 153.04 166.922 152.56 166.922 152C166.922 151.44 167.109 150.973 167.482 150.6C167.882 150.2 168.362 150 168.922 150C169.482 150 169.949 150.2 170.322 150.6C170.722 150.973 170.922 151.44 170.922 152C170.922 152.56 170.722 153.04 170.322 153.44C169.975 153.787 169.562 153.973 169.082 154C169.562 154.053 169.975 154.253 170.322 154.6C170.722 154.973 170.922 155.44 170.922 156C170.922 156.56 170.722 157.04 170.322 157.44C169.975 157.787 169.562 157.973 169.082 158C169.562 158.053 169.975 158.253 170.322 158.6C170.669 158.947 170.869 159.36 170.922 159.84C170.949 159.36 171.135 158.947 171.482 158.6C171.882 158.2 172.362 158 172.922 158C173.482 158 173.949 158.2 174.322 158.6C174.669 158.947 174.869 159.36 174.922 159.84C174.949 159.36 175.135 158.947 175.482 158.6C175.882 158.2 176.362 158 176.922 158C177.482 158 177.949 158.2 178.322 158.6C178.722 158.973 178.922 159.44 178.922 160C178.922 159.44 179.109 158.973 179.482 158.6C179.882 158.2 180.362 158 180.922 158C181.482 158 181.949 158.2 182.322 158.6C182.669 158.947 182.869 159.36 182.922 159.84C182.949 159.36 183.135 158.947 183.482 158.6C183.829 158.253 184.242 158.053 184.722 158C184.242 157.973 183.829 157.787 183.482 157.44C183.109 157.04 182.922 156.56 182.922 156C182.922 155.44 183.109 154.973 183.482 154.6C183.829 154.253 184.242 154.053 184.722 154C184.242 153.973 183.829 153.787 183.482 153.44C183.109 153.04 182.922 152.56 182.922 152C182.922 151.44 183.109 150.973 183.482 150.6C183.882 150.2 184.362 150 184.922 150C185.482 150 185.949 150.2 186.322 150.6C186.722 150.973 186.922 151.44 186.922 152C186.922 152.56 186.722 153.04 186.322 153.44C185.975 153.787 185.562 153.973 185.082 154C185.562 154.053 185.975 154.253 186.322 154.6C186.722 154.973 186.922 155.44 186.922 156C186.922 156.56 186.722 157.04 186.322 157.44C185.975 157.787 185.562 157.973 185.082 158C185.562 158.053 185.975 158.253 186.322 158.6C186.722 158.973 186.922 159.44 186.922 160C186.922 160.56 186.722 161.04 186.322 161.44C185.975 161.787 185.562 161.973 185.082 162C185.562 162.053 185.975 162.253 186.322 162.6C186.722 162.973 186.922 163.44 186.922 164C186.922 164.56 186.722 165.04 186.322 165.44C185.975 165.787 185.562 165.973 185.082 166C185.562 166.053 185.975 166.253 186.322 166.6C186.722 166.973 186.922 167.44 186.922 168C186.922 168.56 186.722 169.04 186.322 169.44C185.949 169.813 185.482 170 184.922 170C184.362 170 183.882 169.813 183.482 169.44C183.109 169.04 182.922 168.56 182.922 168C182.922 167.44 183.109 166.973 183.482 166.6C183.829 166.253 184.242 166.053 184.722 166C184.242 165.973 183.829 165.787 183.482 165.44C183.109 165.04 182.922 164.56 182.922 164ZM206.906 164C206.906 163.44 207.093 162.973 207.466 162.6C207.813 162.253 208.226 162.053 208.706 162C208.226 161.973 207.813 161.787 207.466 161.44C207.093 161.04 206.906 160.56 206.906 160C206.906 159.44 207.093 158.973 207.466 158.6C207.813 158.253 208.226 158.053 208.706 158C208.226 157.973 207.813 157.787 207.466 157.44C207.12 157.093 206.933 156.68 206.906 156.2C206.853 156.68 206.653 157.093 206.306 157.44C205.933 157.813 205.466 158 204.906 158C204.346 158 203.866 157.813 203.466 157.44C203.093 157.04 202.906 156.56 202.906 156C202.906 155.44 203.093 154.973 203.466 154.6C203.866 154.2 204.346 154 204.906 154C205.466 154 205.933 154.2 206.306 154.6C206.706 154.973 206.906 155.44 206.906 156C206.906 155.44 207.093 154.973 207.466 154.6C207.813 154.253 208.226 154.053 208.706 154C208.226 153.973 207.813 153.787 207.466 153.44C207.093 153.04 206.906 152.56 206.906 152C206.906 151.44 207.093 150.973 207.466 150.6C207.866 150.2 208.346 150 208.906 150C209.466 150 209.933 150.2 210.306 150.6C210.706 150.973 210.906 151.44 210.906 152C210.906 152.56 210.706 153.04 210.306 153.44C209.96 153.787 209.546 153.973 209.066 154C209.546 154.053 209.96 154.253 210.306 154.6C210.706 154.973 210.906 155.44 210.906 156C210.906 156.56 210.706 157.04 210.306 157.44C209.96 157.787 209.546 157.973 209.066 158C209.546 158.053 209.96 158.253 210.306 158.6C210.706 158.973 210.906 159.44 210.906 160C210.906 160.56 210.706 161.04 210.306 161.44C209.96 161.787 209.546 161.973 209.066 162C209.546 162.053 209.96 162.253 210.306 162.6C210.706 162.973 210.906 163.44 210.906 164C210.906 164.56 210.706 165.04 210.306 165.44C209.96 165.787 209.546 165.973 209.066 166C209.546 166.053 209.96 166.253 210.306 166.6C210.706 166.973 210.906 167.44 210.906 168C210.906 168.56 210.706 169.04 210.306 169.44C209.933 169.813 209.466 170 208.906 170C208.346 170 207.866 169.813 207.466 169.44C207.093 169.04 206.906 168.56 206.906 168C206.906 167.44 207.093 166.973 207.466 166.6C207.813 166.253 208.226 166.053 208.706 166C208.226 165.973 207.813 165.787 207.466 165.44C207.093 165.04 206.906 164.56 206.906 164ZM190.906 164C190.906 163.44 191.093 162.973 191.466 162.6C191.813 162.253 192.226 162.053 192.706 162C192.226 161.973 191.813 161.787 191.466 161.44C191.093 161.04 190.906 160.56 190.906 160C190.906 159.44 191.093 158.973 191.466 158.6C191.813 158.253 192.226 158.053 192.706 158C192.226 157.973 191.813 157.787 191.466 157.44C191.093 157.04 190.906 156.56 190.906 156C190.906 155.44 191.093 154.973 191.466 154.6C191.813 154.253 192.226 154.053 192.706 154C192.226 153.973 191.813 153.787 191.466 153.44C191.093 153.04 190.906 152.56 190.906 152C190.906 151.44 191.093 150.973 191.466 150.6C191.866 150.2 192.346 150 192.906 150C193.466 150 193.933 150.2 194.306 150.6C194.706 150.973 194.906 151.44 194.906 152C194.906 152.56 194.706 153.04 194.306 153.44C193.96 153.787 193.546 153.973 193.066 154C193.546 154.053 193.96 154.253 194.306 154.6C194.706 154.973 194.906 155.44 194.906 156C194.906 156.56 194.706 157.04 194.306 157.44C193.96 157.787 193.546 157.973 193.066 158C193.546 158.053 193.96 158.253 194.306 158.6C194.706 158.973 194.906 159.44 194.906 160C194.906 160.56 194.706 161.04 194.306 161.44C193.96 161.787 193.546 161.973 193.066 162C193.546 162.053 193.96 162.253 194.306 162.6C194.706 162.973 194.906 163.44 194.906 164C194.906 163.44 195.093 162.973 195.466 162.6C195.866 162.2 196.346 162 196.906 162C197.466 162 197.933 162.2 198.306 162.6C198.706 162.973 198.906 163.44 198.906 164C198.906 164.56 198.706 165.04 198.306 165.44C197.933 165.813 197.466 166 196.906 166C196.346 166 195.866 165.813 195.466 165.44C195.12 165.093 194.933 164.68 194.906 164.2C194.853 164.68 194.653 165.093 194.306 165.44C193.96 165.787 193.546 165.973 193.066 166C193.546 166.053 193.96 166.253 194.306 166.6C194.706 166.973 194.906 167.44 194.906 168C194.906 168.56 194.706 169.04 194.306 169.44C193.933 169.813 193.466 170 192.906 170C192.346 170 191.866 169.813 191.466 169.44C191.093 169.04 190.906 168.56 190.906 168C190.906 167.44 191.093 166.973 191.466 166.6C191.813 166.253 192.226 166.053 192.706 166C192.226 165.973 191.813 165.787 191.466 165.44C191.093 165.04 190.906 164.56 190.906 164ZM198.906 160C198.906 159.44 199.093 158.973 199.466 158.6C199.866 158.2 200.346 158 200.906 158C201.466 158 201.933 158.2 202.306 158.6C202.706 158.973 202.906 159.44 202.906 160C202.906 160.56 202.706 161.04 202.306 161.44C201.933 161.813 201.466 162 200.906 162C200.346 162 199.866 161.813 199.466 161.44C199.093 161.04 198.906 160.56 198.906 160ZM222.891 164C222.891 163.44 223.077 162.973 223.451 162.6C223.797 162.253 224.211 162.053 224.691 162C224.211 161.973 223.797 161.787 223.451 161.44C223.077 161.04 222.891 160.56 222.891 160C222.891 159.44 223.077 158.973 223.451 158.6C223.797 158.253 224.211 158.053 224.691 158C224.211 157.973 223.797 157.787 223.451 157.44C223.077 157.04 222.891 156.56 222.891 156C222.891 155.44 223.077 154.973 223.451 154.6C223.797 154.253 224.211 154.053 224.691 154C224.211 153.973 223.797 153.787 223.451 153.44C223.104 153.093 222.917 152.68 222.891 152.2C222.837 152.68 222.637 153.093 222.291 153.44C221.917 153.813 221.451 154 220.891 154C220.331 154 219.851 153.813 219.451 153.44C219.104 153.093 218.917 152.68 218.891 152.2C218.837 152.68 218.637 153.093 218.291 153.44C217.917 153.813 217.451 154 216.891 154C216.331 154 215.851 153.813 215.451 153.44C215.077 153.04 214.891 152.56 214.891 152C214.891 151.44 215.077 150.973 215.451 150.6C215.851 150.2 216.331 150 216.891 150C217.451 150 217.917 150.2 218.291 150.6C218.637 150.947 218.837 151.36 218.891 151.84C218.917 151.36 219.104 150.947 219.451 150.6C219.851 150.2 220.331 150 220.891 150C221.451 150 221.917 150.2 222.291 150.6C222.637 150.947 222.837 151.36 222.891 151.84C222.917 151.36 223.104 150.947 223.451 150.6C223.851 150.2 224.331 150 224.891 150C225.451 150 225.917 150.2 226.291 150.6C226.691 150.973 226.891 151.44 226.891 152C226.891 151.44 227.077 150.973 227.451 150.6C227.851 150.2 228.331 150 228.891 150C229.451 150 229.917 150.2 230.291 150.6C230.691 150.973 230.891 151.44 230.891 152C230.891 151.44 231.077 150.973 231.451 150.6C231.851 150.2 232.331 150 232.891 150C233.451 150 233.917 150.2 234.291 150.6C234.691 150.973 234.891 151.44 234.891 152C234.891 152.56 234.691 153.04 234.291 153.44C233.917 153.813 233.451 154 232.891 154C232.331 154 231.851 153.813 231.451 153.44C231.104 153.093 230.917 152.68 230.891 152.2C230.837 152.68 230.637 153.093 230.291 153.44C229.917 153.813 229.451 154 228.891 154C228.331 154 227.851 153.813 227.451 153.44C227.104 153.093 226.917 152.68 226.891 152.2C226.837 152.68 226.637 153.093 226.291 153.44C225.944 153.787 225.531 153.973 225.051 154C225.531 154.053 225.944 154.253 226.291 154.6C226.691 154.973 226.891 155.44 226.891 156C226.891 156.56 226.691 157.04 226.291 157.44C225.944 157.787 225.531 157.973 225.051 158C225.531 158.053 225.944 158.253 226.291 158.6C226.691 158.973 226.891 159.44 226.891 160C226.891 160.56 226.691 161.04 226.291 161.44C225.944 161.787 225.531 161.973 225.051 162C225.531 162.053 225.944 162.253 226.291 162.6C226.691 162.973 226.891 163.44 226.891 164C226.891 164.56 226.691 165.04 226.291 165.44C225.944 165.787 225.531 165.973 225.051 166C225.531 166.053 225.944 166.253 226.291 166.6C226.691 166.973 226.891 167.44 226.891 168C226.891 168.56 226.691 169.04 226.291 169.44C225.917 169.813 225.451 170 224.891 170C224.331 170 223.851 169.813 223.451 169.44C223.077 169.04 222.891 168.56 222.891 168C222.891 167.44 223.077 166.973 223.451 166.6C223.797 166.253 224.211 166.053 224.691 166C224.211 165.973 223.797 165.787 223.451 165.44C223.077 165.04 222.891 164.56 222.891 164ZM250.875 168C250.875 167.44 251.062 166.973 251.435 166.6C251.835 166.2 252.315 166 252.875 166C253.435 166 253.902 166.2 254.275 166.6C254.675 166.973 254.875 167.44 254.875 168C254.875 168.56 254.675 169.04 254.275 169.44C253.902 169.813 253.435 170 252.875 170C252.315 170 251.835 169.813 251.435 169.44C251.088 169.093 250.902 168.68 250.875 168.2C250.822 168.68 250.622 169.093 250.275 169.44C249.902 169.813 249.435 170 248.875 170C248.315 170 247.835 169.813 247.435 169.44C247.088 169.093 246.902 168.68 246.875 168.2C246.822 168.68 246.622 169.093 246.275 169.44C245.902 169.813 245.435 170 244.875 170C244.315 170 243.835 169.813 243.435 169.44C243.088 169.093 242.902 168.68 242.875 168.2C242.822 168.68 242.622 169.093 242.275 169.44C241.902 169.813 241.435 170 240.875 170C240.315 170 239.835 169.813 239.435 169.44C239.062 169.04 238.875 168.56 238.875 168C238.875 167.44 239.062 166.973 239.435 166.6C239.782 166.253 240.195 166.053 240.675 166C240.195 165.973 239.782 165.787 239.435 165.44C239.062 165.04 238.875 164.56 238.875 164C238.875 163.44 239.062 162.973 239.435 162.6C239.782 162.253 240.195 162.053 240.675 162C240.195 161.973 239.782 161.787 239.435 161.44C239.062 161.04 238.875 160.56 238.875 160C238.875 159.44 239.062 158.973 239.435 158.6C239.782 158.253 240.195 158.053 240.675 158C240.195 157.973 239.782 157.787 239.435 157.44C239.062 157.04 238.875 156.56 238.875 156C238.875 155.44 239.062 154.973 239.435 154.6C239.782 154.253 240.195 154.053 240.675 154C240.195 153.973 239.782 153.787 239.435 153.44C239.062 153.04 238.875 152.56 238.875 152C238.875 151.44 239.062 150.973 239.435 150.6C239.835 150.2 240.315 150 240.875 150C241.435 150 241.902 150.2 242.275 150.6C242.675 150.973 242.875 151.44 242.875 152C242.875 152.56 242.675 153.04 242.275 153.44C241.928 153.787 241.515 153.973 241.035 154C241.515 154.053 241.928 154.253 242.275 154.6C242.675 154.973 242.875 155.44 242.875 156C242.875 156.56 242.675 157.04 242.275 157.44C241.928 157.787 241.515 157.973 241.035 158C241.515 158.053 241.928 158.253 242.275 158.6C242.675 158.973 242.875 159.44 242.875 160C242.875 159.44 243.062 158.973 243.435 158.6C243.835 158.2 244.315 158 244.875 158C245.435 158 245.902 158.2 246.275 158.6C246.675 158.973 246.875 159.44 246.875 160C246.875 159.44 247.062 158.973 247.435 158.6C247.835 158.2 248.315 158 248.875 158C249.435 158 249.902 158.2 250.275 158.6C250.675 158.973 250.875 159.44 250.875 160C250.875 159.44 251.062 158.973 251.435 158.6C251.835 158.2 252.315 158 252.875 158C253.435 158 253.902 158.2 254.275 158.6C254.675 158.973 254.875 159.44 254.875 160C254.875 160.56 254.675 161.04 254.275 161.44C253.902 161.813 253.435 162 252.875 162C252.315 162 251.835 161.813 251.435 161.44C251.088 161.093 250.902 160.68 250.875 160.2C250.822 160.68 250.622 161.093 250.275 161.44C249.902 161.813 249.435 162 248.875 162C248.315 162 247.835 161.813 247.435 161.44C247.088 161.093 246.902 160.68 246.875 160.2C246.822 160.68 246.622 161.093 246.275 161.44C245.902 161.813 245.435 162 244.875 162C244.315 162 243.835 161.813 243.435 161.44C243.088 161.093 242.902 160.68 242.875 160.2C242.822 160.68 242.622 161.093 242.275 161.44C241.928 161.787 241.515 161.973 241.035 162C241.515 162.053 241.928 162.253 242.275 162.6C242.675 162.973 242.875 163.44 242.875 164C242.875 164.56 242.675 165.04 242.275 165.44C241.928 165.787 241.515 165.973 241.035 166C241.515 166.053 241.928 166.253 242.275 166.6C242.675 166.973 242.875 167.44 242.875 168C242.875 167.44 243.062 166.973 243.435 166.6C243.835 166.2 244.315 166 244.875 166C245.435 166 245.902 166.2 246.275 166.6C246.675 166.973 246.875 167.44 246.875 168C246.875 167.44 247.062 166.973 247.435 166.6C247.835 166.2 248.315 166 248.875 166C249.435 166 249.902 166.2 250.275 166.6C250.675 166.973 250.875 167.44 250.875 168ZM254.875 164C254.875 163.44 255.062 162.973 255.435 162.6C255.835 162.2 256.315 162 256.875 162C257.435 162 257.902 162.2 258.275 162.6C258.675 162.973 258.875 163.44 258.875 164C258.875 164.56 258.675 165.04 258.275 165.44C257.902 165.813 257.435 166 256.875 166C256.315 166 255.835 165.813 255.435 165.44C255.062 165.04 254.875 164.56 254.875 164ZM47 216C47 215.44 47.1867 214.973 47.56 214.6C47.9067 214.253 48.32 214.053 48.8 214C48.32 213.973 47.9067 213.787 47.56 213.44C47.1867 213.04 47 212.56 47 212C47 211.44 47.1867 210.973 47.56 210.6C47.9067 210.253 48.32 210.053 48.8 210C48.32 209.973 47.9067 209.787 47.56 209.44C47.1867 209.04 47 208.56 47 208C47 207.44 47.1867 206.973 47.56 206.6C47.96 206.2 48.44 206 49 206C49.56 206 50.0267 206.2 50.4 206.6C50.8 206.973 51 207.44 51 208C51 207.44 51.1867 206.973 51.56 206.6C51.9067 206.253 52.32 206.053 52.8 206C52.32 205.973 51.9067 205.787 51.56 205.44C51.1867 205.04 51 204.56 51 204C51 203.44 51.1867 202.973 51.56 202.6C51.96 202.2 52.44 202 53 202C53.56 202 54.0267 202.2 54.4 202.6C54.8 202.973 55 203.44 55 204C55 204.56 54.8 205.04 54.4 205.44C54.0533 205.787 53.64 205.973 53.16 206C53.64 206.053 54.0533 206.253 54.4 206.6C54.7467 206.947 54.9467 207.36 55 207.84C55.0267 207.36 55.2133 206.947 55.56 206.6C55.96 206.2 56.44 206 57 206C57.56 206 58.0267 206.2 58.4 206.6C58.7467 206.947 58.9467 207.36 59 207.84C59.0267 207.36 59.2133 206.947 59.56 206.6C59.96 206.2 60.44 206 61 206C61.56 206 62.0267 206.2 62.4 206.6C62.8 206.973 63 207.44 63 208C63 208.56 62.8 209.04 62.4 209.44C62.0267 209.813 61.56 210 61 210C60.44 210 59.96 209.813 59.56 209.44C59.2133 209.093 59.0267 208.68 59 208.2C58.9467 208.68 58.7467 209.093 58.4 209.44C58.0267 209.813 57.56 210 57 210C56.44 210 55.96 209.813 55.56 209.44C55.2133 209.093 55.0267 208.68 55 208.2C54.9467 208.68 54.7467 209.093 54.4 209.44C54.0267 209.813 53.56 210 53 210C52.44 210 51.96 209.813 51.56 209.44C51.2133 209.093 51.0267 208.68 51 208.2C50.9467 208.68 50.7467 209.093 50.4 209.44C50.0533 209.787 49.64 209.973 49.16 210C49.64 210.053 50.0533 210.253 50.4 210.6C50.8 210.973 51 211.44 51 212C51 212.56 50.8 213.04 50.4 213.44C50.0533 213.787 49.64 213.973 49.16 214C49.64 214.053 50.0533 214.253 50.4 214.6C50.8 214.973 51 215.44 51 216C51 216.56 50.8 217.04 50.4 217.44C50.0533 217.787 49.64 217.973 49.16 218C49.64 218.053 50.0533 218.253 50.4 218.6C50.8 218.973 51 219.44 51 220C51 220.56 50.8 221.04 50.4 221.44C50.0267 221.813 49.56 222 49 222C48.44 222 47.96 221.813 47.56 221.44C47.1867 221.04 47 220.56 47 220C47 219.44 47.1867 218.973 47.56 218.6C47.9067 218.253 48.32 218.053 48.8 218C48.32 217.973 47.9067 217.787 47.56 217.44C47.1867 217.04 47 216.56 47 216ZM63 216C63 215.44 63.1867 214.973 63.56 214.6C63.9067 214.253 64.32 214.053 64.8 214C64.32 213.973 63.9067 213.787 63.56 213.44C63.1867 213.04 63 212.56 63 212C63 211.44 63.1867 210.973 63.56 210.6C63.96 210.2 64.44 210 65 210C65.56 210 66.0267 210.2 66.4 210.6C66.8 210.973 67 211.44 67 212C67 212.56 66.8 213.04 66.4 213.44C66.0533 213.787 65.64 213.973 65.16 214C65.64 214.053 66.0533 214.253 66.4 214.6C66.8 214.973 67 215.44 67 216C67 216.56 66.8 217.04 66.4 217.44C66.0533 217.787 65.64 217.973 65.16 218C65.64 218.053 66.0533 218.253 66.4 218.6C66.8 218.973 67 219.44 67 220C67 220.56 66.8 221.04 66.4 221.44C66.0267 221.813 65.56 222 65 222C64.44 222 63.96 221.813 63.56 221.44C63.1867 221.04 63 220.56 63 220C63 219.44 63.1867 218.973 63.56 218.6C63.9067 218.253 64.32 218.053 64.8 218C64.32 217.973 63.9067 217.787 63.56 217.44C63.1867 217.04 63 216.56 63 216ZM59 224C59 223.44 59.1867 222.973 59.56 222.6C59.96 222.2 60.44 222 61 222C61.56 222 62.0267 222.2 62.4 222.6C62.8 222.973 63 223.44 63 224C63 224.56 62.8 225.04 62.4 225.44C62.0267 225.813 61.56 226 61 226C60.44 226 59.96 225.813 59.56 225.44C59.2133 225.093 59.0267 224.68 59 224.2C58.9467 224.68 58.7467 225.093 58.4 225.44C58.0267 225.813 57.56 226 57 226C56.44 226 55.96 225.813 55.56 225.44C55.2133 225.093 55.0267 224.68 55 224.2C54.9467 224.68 54.7467 225.093 54.4 225.44C54.0267 225.813 53.56 226 53 226C52.44 226 51.96 225.813 51.56 225.44C51.1867 225.04 51 224.56 51 224C51 223.44 51.1867 222.973 51.56 222.6C51.96 222.2 52.44 222 53 222C53.56 222 54.0267 222.2 54.4 222.6C54.7467 222.947 54.9467 223.36 55 223.84C55.0267 223.36 55.2133 222.947 55.56 222.6C55.96 222.2 56.44 222 57 222C57.56 222 58.0267 222.2 58.4 222.6C58.8 222.973 59 223.44 59 224ZM55 200C55 199.44 55.1867 198.973 55.56 198.6C55.96 198.2 56.44 198 57 198C57.56 198 58.0267 198.2 58.4 198.6C58.7467 198.947 58.9467 199.36 59 199.84C59.0267 199.36 59.2133 198.947 59.56 198.6C59.96 198.2 60.44 198 61 198C61.56 198 62.0267 198.2 62.4 198.6C62.8 198.973 63 199.44 63 200C63 200.56 62.8 201.04 62.4 201.44C62.0267 201.813 61.56 202 61 202C60.44 202 59.96 201.813 59.56 201.44C59.2133 201.093 59.0267 200.68 59 200.2C58.9467 200.68 58.7467 201.093 58.4 201.44C58.0267 201.813 57.56 202 57 202C56.44 202 55.96 201.813 55.56 201.44C55.1867 201.04 55 200.56 55 200ZM70.9844 208C70.9844 207.44 71.171 206.973 71.5444 206.6C71.9444 206.2 72.4244 206 72.9844 206C73.5177 206 73.971 206.173 74.3444 206.52C74.7177 206.867 74.931 207.307 74.9844 207.84C75.0377 207.307 75.251 206.867 75.6244 206.52C75.9977 206.173 76.451 206 76.9844 206C77.5177 206 77.971 206.173 78.3444 206.52C78.691 206.867 78.9044 207.293 78.9844 207.8C79.0377 207.293 79.251 206.867 79.6244 206.52C79.9977 206.173 80.451 206 80.9844 206C81.5444 206 82.011 206.2 82.3844 206.6C82.7844 206.973 82.9844 207.44 82.9844 208C82.9844 207.44 83.171 206.973 83.5444 206.6C83.9444 206.2 84.4244 206 84.9844 206C85.5444 206 86.011 206.2 86.3844 206.6C86.7844 206.973 86.9844 207.44 86.9844 208C86.9844 208.56 86.7844 209.04 86.3844 209.44C86.011 209.813 85.5444 210 84.9844 210C84.451 210 83.9977 209.827 83.6244 209.48C83.251 209.16 83.0377 208.733 82.9844 208.2C82.9044 208.733 82.691 209.16 82.3444 209.48C81.971 209.827 81.5177 210 80.9844 210C80.451 210 79.9977 209.827 79.6244 209.48C79.251 209.16 79.0377 208.733 78.9844 208.2C78.9044 208.733 78.691 209.16 78.3444 209.48C77.971 209.827 77.5177 210 76.9844 210C76.451 210 75.9977 209.827 75.6244 209.48C75.251 209.16 75.0377 208.733 74.9844 208.2C74.9044 208.707 74.691 209.12 74.3444 209.44C74.0244 209.76 73.6377 209.947 73.1844 210C73.691 210.08 74.1177 210.293 74.4644 210.64C74.811 211.013 74.9844 211.467 74.9844 212C74.9844 212.533 74.811 212.987 74.4644 213.36C74.1177 213.733 73.691 213.947 73.1844 214C73.691 214.08 74.1177 214.293 74.4644 214.64C74.811 215.013 74.9844 215.467 74.9844 216C74.9844 216.533 74.811 216.987 74.4644 217.36C74.1177 217.733 73.691 217.947 73.1844 218C73.6377 218.08 74.0244 218.293 74.3444 218.64C74.691 218.96 74.9044 219.347 74.9844 219.8C75.0377 219.293 75.251 218.867 75.6244 218.52C75.9977 218.173 76.451 218 76.9844 218C77.5177 218 77.971 218.173 78.3444 218.52C78.7177 218.867 78.931 219.307 78.9844 219.84C79.0377 219.307 79.251 218.867 79.6244 218.52C79.9977 218.173 80.451 218 80.9844 218C81.5444 218 82.011 218.2 82.3844 218.6C82.7844 218.973 82.9844 219.44 82.9844 220C82.9844 219.44 83.171 218.973 83.5444 218.6C83.9444 218.2 84.4244 218 84.9844 218C85.5444 218 86.011 218.2 86.3844 218.6C86.7844 218.973 86.9844 219.44 86.9844 220C86.9844 220.56 86.7844 221.04 86.3844 221.44C86.011 221.813 85.5444 222 84.9844 222C84.451 222 83.9977 221.827 83.6244 221.48C83.251 221.16 83.0377 220.733 82.9844 220.2C82.9044 220.733 82.691 221.16 82.3444 221.48C81.971 221.827 81.5177 222 80.9844 222C80.451 222 79.9977 221.827 79.6244 221.48C79.251 221.16 79.0377 220.733 78.9844 220.2C78.9044 220.733 78.691 221.16 78.3444 221.48C77.971 221.827 77.5177 222 76.9844 222C76.451 222 75.9977 221.827 75.6244 221.48C75.251 221.16 75.0377 220.733 74.9844 220.2C74.9044 220.707 74.691 221.12 74.3444 221.44C74.0244 221.76 73.6377 221.947 73.1844 222C73.691 222.08 74.1177 222.293 74.4644 222.64C74.811 223.013 74.9844 223.467 74.9844 224C74.9844 224.56 74.7844 225.04 74.3844 225.44C74.011 225.813 73.5444 226 72.9844 226C72.4244 226 71.9444 225.813 71.5444 225.44C71.171 225.04 70.9844 224.56 70.9844 224C70.9844 223.467 71.1577 223.013 71.5044 222.64C71.8244 222.293 72.251 222.08 72.7844 222C72.251 221.947 71.8244 221.733 71.5044 221.36C71.1577 220.987 70.9844 220.533 70.9844 220C70.9844 219.467 71.1577 219.013 71.5044 218.64C71.8244 218.293 72.251 218.08 72.7844 218C72.251 217.947 71.8244 217.733 71.5044 217.36C71.1577 216.987 70.9844 216.533 70.9844 216C70.9844 215.467 71.1577 215.013 71.5044 214.64C71.8244 214.293 72.251 214.08 72.7844 214C72.251 213.947 71.8244 213.733 71.5044 213.36C71.1577 212.987 70.9844 212.533 70.9844 212C70.9844 211.467 71.1577 211.013 71.5044 210.64C71.8244 210.293 72.251 210.08 72.7844 210C72.251 209.947 71.8244 209.733 71.5044 209.36C71.1577 208.987 70.9844 208.533 70.9844 208ZM86.9844 216C86.9844 215.467 87.1577 215.013 87.5044 214.64C87.8244 214.293 88.251 214.08 88.7844 214C88.251 213.947 87.8244 213.733 87.5044 213.36C87.1577 212.987 86.9844 212.533 86.9844 212C86.9844 211.44 87.171 210.973 87.5444 210.6C87.9444 210.2 88.4244 210 88.9844 210C89.5444 210 90.011 210.2 90.3844 210.6C90.7844 210.973 90.9844 211.44 90.9844 212C90.9844 212.533 90.811 212.987 90.4644 213.36C90.1177 213.733 89.691 213.947 89.1844 214C89.691 214.08 90.1177 214.293 90.4644 214.64C90.811 215.013 90.9844 215.467 90.9844 216C90.9844 216.56 90.7844 217.04 90.3844 217.44C90.011 217.813 89.5444 218 88.9844 218C88.4244 218 87.9444 217.813 87.5444 217.44C87.171 217.04 86.9844 216.56 86.9844 216ZM110.969 220C110.969 219.44 111.155 218.973 111.529 218.6C111.875 218.253 112.289 218.053 112.769 218C112.289 217.973 111.875 217.787 111.529 217.44C111.155 217.04 110.969 216.56 110.969 216C110.969 215.44 111.155 214.973 111.529 214.6C111.875 214.253 112.289 214.053 112.769 214C112.289 213.973 111.875 213.787 111.529 213.44C111.182 213.093 110.995 212.68 110.969 212.2C110.915 212.68 110.715 213.093 110.369 213.44C109.995 213.813 109.529 214 108.969 214C108.409 214 107.929 213.813 107.529 213.44C107.155 213.04 106.969 212.56 106.969 212C106.969 211.44 107.155 210.973 107.529 210.6C107.929 210.2 108.409 210 108.969 210C109.529 210 109.995 210.2 110.369 210.6C110.769 210.973 110.969 211.44 110.969 212C110.969 211.44 111.155 210.973 111.529 210.6C111.875 210.253 112.289 210.053 112.769 210C112.289 209.973 111.875 209.787 111.529 209.44C111.155 209.04 110.969 208.56 110.969 208C110.969 207.44 111.155 206.973 111.529 206.6C111.929 206.2 112.409 206 112.969 206C113.529 206 113.995 206.2 114.369 206.6C114.769 206.973 114.969 207.44 114.969 208C114.969 208.56 114.769 209.04 114.369 209.44C114.022 209.787 113.609 209.973 113.129 210C113.609 210.053 114.022 210.253 114.369 210.6C114.769 210.973 114.969 211.44 114.969 212C114.969 212.56 114.769 213.04 114.369 213.44C114.022 213.787 113.609 213.973 113.129 214C113.609 214.053 114.022 214.253 114.369 214.6C114.769 214.973 114.969 215.44 114.969 216C114.969 216.56 114.769 217.04 114.369 217.44C114.022 217.787 113.609 217.973 113.129 218C113.609 218.053 114.022 218.253 114.369 218.6C114.769 218.973 114.969 219.44 114.969 220C114.969 220.56 114.769 221.04 114.369 221.44C114.022 221.787 113.609 221.973 113.129 222C113.609 222.053 114.022 222.253 114.369 222.6C114.769 222.973 114.969 223.44 114.969 224C114.969 224.56 114.769 225.04 114.369 225.44C113.995 225.813 113.529 226 112.969 226C112.409 226 111.929 225.813 111.529 225.44C111.155 225.04 110.969 224.56 110.969 224C110.969 223.44 111.155 222.973 111.529 222.6C111.875 222.253 112.289 222.053 112.769 222C112.289 221.973 111.875 221.787 111.529 221.44C111.155 221.04 110.969 220.56 110.969 220ZM94.9688 220C94.9688 219.44 95.1554 218.973 95.5288 218.6C95.8754 218.253 96.2888 218.053 96.7688 218C96.2888 217.973 95.8754 217.787 95.5288 217.44C95.1554 217.04 94.9688 216.56 94.9688 216C94.9688 215.44 95.1554 214.973 95.5288 214.6C95.8754 214.253 96.2888 214.053 96.7688 214C96.2888 213.973 95.8754 213.787 95.5288 213.44C95.1554 213.04 94.9688 212.56 94.9688 212C94.9688 211.44 95.1554 210.973 95.5288 210.6C95.8754 210.253 96.2888 210.053 96.7688 210C96.2888 209.973 95.8754 209.787 95.5288 209.44C95.1554 209.04 94.9688 208.56 94.9688 208C94.9688 207.44 95.1554 206.973 95.5288 206.6C95.9288 206.2 96.4088 206 96.9688 206C97.5288 206 97.9954 206.2 98.3688 206.6C98.7688 206.973 98.9688 207.44 98.9688 208C98.9688 208.56 98.7688 209.04 98.3688 209.44C98.0221 209.787 97.6088 209.973 97.1288 210C97.6088 210.053 98.0221 210.253 98.3688 210.6C98.7688 210.973 98.9688 211.44 98.9688 212C98.9688 212.56 98.7688 213.04 98.3688 213.44C98.0221 213.787 97.6088 213.973 97.1288 214C97.6088 214.053 98.0221 214.253 98.3688 214.6C98.7688 214.973 98.9688 215.44 98.9688 216C98.9688 216.56 98.7688 217.04 98.3688 217.44C98.0221 217.787 97.6088 217.973 97.1288 218C97.6088 218.053 98.0221 218.253 98.3688 218.6C98.7688 218.973 98.9688 219.44 98.9688 220C98.9688 219.44 99.1554 218.973 99.5288 218.6C99.9288 218.2 100.409 218 100.969 218C101.529 218 101.995 218.2 102.369 218.6C102.769 218.973 102.969 219.44 102.969 220C102.969 220.56 102.769 221.04 102.369 221.44C101.995 221.813 101.529 222 100.969 222C100.409 222 99.9288 221.813 99.5288 221.44C99.1821 221.093 98.9954 220.68 98.9688 220.2C98.9154 220.68 98.7154 221.093 98.3688 221.44C98.0221 221.787 97.6088 221.973 97.1288 222C97.6088 222.053 98.0221 222.253 98.3688 222.6C98.7688 222.973 98.9688 223.44 98.9688 224C98.9688 224.56 98.7688 225.04 98.3688 225.44C97.9954 225.813 97.5288 226 96.9688 226C96.4088 226 95.9288 225.813 95.5288 225.44C95.1554 225.04 94.9688 224.56 94.9688 224C94.9688 223.44 95.1554 222.973 95.5288 222.6C95.8754 222.253 96.2888 222.053 96.7688 222C96.2888 221.973 95.8754 221.787 95.5288 221.44C95.1554 221.04 94.9688 220.56 94.9688 220ZM102.969 216C102.969 215.44 103.155 214.973 103.529 214.6C103.929 214.2 104.409 214 104.969 214C105.529 214 105.995 214.2 106.369 214.6C106.769 214.973 106.969 215.44 106.969 216C106.969 216.56 106.769 217.04 106.369 217.44C105.995 217.813 105.529 218 104.969 218C104.409 218 103.929 217.813 103.529 217.44C103.155 217.04 102.969 216.56 102.969 216ZM122.953 220C122.953 219.44 123.14 218.973 123.513 218.6C123.913 218.2 124.393 218 124.953 218C125.513 218 125.98 218.2 126.353 218.6C126.753 218.973 126.953 219.44 126.953 220C126.953 219.44 127.14 218.973 127.513 218.6C127.86 218.253 128.273 218.053 128.753 218C128.273 217.973 127.86 217.787 127.513 217.44C127.14 217.04 126.953 216.56 126.953 216C126.953 215.44 127.14 214.973 127.513 214.6C127.86 214.253 128.273 214.053 128.753 214C128.273 213.973 127.86 213.787 127.513 213.44C127.14 213.04 126.953 212.56 126.953 212C126.953 211.44 127.14 210.973 127.513 210.6C127.86 210.253 128.273 210.053 128.753 210C128.273 209.973 127.86 209.787 127.513 209.44C127.166 209.093 126.98 208.68 126.953 208.2C126.9 208.68 126.7 209.093 126.353 209.44C125.98 209.813 125.513 210 124.953 210C124.393 210 123.913 209.813 123.513 209.44C123.14 209.04 122.953 208.56 122.953 208C122.953 207.44 123.14 206.973 123.513 206.6C123.913 206.2 124.393 206 124.953 206C125.513 206 125.98 206.2 126.353 206.6C126.7 206.947 126.9 207.36 126.953 207.84C126.98 207.36 127.166 206.947 127.513 206.6C127.86 206.253 128.273 206.053 128.753 206C128.273 205.973 127.86 205.787 127.513 205.44C127.14 205.04 126.953 204.56 126.953 204C126.953 203.44 127.14 202.973 127.513 202.6C127.913 202.2 128.393 202 128.953 202C129.513 202 129.98 202.2 130.353 202.6C130.753 202.973 130.953 203.44 130.953 204C130.953 204.56 130.753 205.04 130.353 205.44C130.006 205.787 129.593 205.973 129.113 206C129.593 206.053 130.006 206.253 130.353 206.6C130.7 206.947 130.9 207.36 130.953 207.84C130.98 207.36 131.166 206.947 131.513 206.6C131.913 206.2 132.393 206 132.953 206C133.513 206 133.98 206.2 134.353 206.6C134.753 206.973 134.953 207.44 134.953 208C134.953 208.56 134.753 209.04 134.353 209.44C133.98 209.813 133.513 210 132.953 210C132.393 210 131.913 209.813 131.513 209.44C131.166 209.093 130.98 208.68 130.953 208.2C130.9 208.68 130.7 209.093 130.353 209.44C130.006 209.787 129.593 209.973 129.113 210C129.593 210.053 130.006 210.253 130.353 210.6C130.753 210.973 130.953 211.44 130.953 212C130.953 212.56 130.753 213.04 130.353 213.44C130.006 213.787 129.593 213.973 129.113 214C129.593 214.053 130.006 214.253 130.353 214.6C130.753 214.973 130.953 215.44 130.953 216C130.953 216.56 130.753 217.04 130.353 217.44C130.006 217.787 129.593 217.973 129.113 218C129.593 218.053 130.006 218.253 130.353 218.6C130.753 218.973 130.953 219.44 130.953 220C130.953 219.44 131.14 218.973 131.513 218.6C131.913 218.2 132.393 218 132.953 218C133.513 218 133.98 218.2 134.353 218.6C134.753 218.973 134.953 219.44 134.953 220C134.953 220.56 134.753 221.04 134.353 221.44C133.98 221.813 133.513 222 132.953 222C132.393 222 131.913 221.813 131.513 221.44C131.166 221.093 130.98 220.68 130.953 220.2C130.9 220.68 130.7 221.093 130.353 221.44C130.006 221.787 129.593 221.973 129.113 222C129.593 222.053 130.006 222.253 130.353 222.6C130.753 222.973 130.953 223.44 130.953 224C130.953 224.56 130.753 225.04 130.353 225.44C129.98 225.813 129.513 226 128.953 226C128.393 226 127.913 225.813 127.513 225.44C127.14 225.04 126.953 224.56 126.953 224C126.953 223.44 127.14 222.973 127.513 222.6C127.86 222.253 128.273 222.053 128.753 222C128.273 221.973 127.86 221.787 127.513 221.44C127.166 221.093 126.98 220.68 126.953 220.2C126.9 220.68 126.7 221.093 126.353 221.44C125.98 221.813 125.513 222 124.953 222C124.393 222 123.913 221.813 123.513 221.44C123.14 221.04 122.953 220.56 122.953 220ZM118.953 212C118.953 211.44 119.14 210.973 119.513 210.6C119.913 210.2 120.393 210 120.953 210C121.513 210 121.98 210.2 122.353 210.6C122.753 210.973 122.953 211.44 122.953 212C122.953 212.56 122.753 213.04 122.353 213.44C122.006 213.787 121.593 213.973 121.113 214C121.593 214.053 122.006 214.253 122.353 214.6C122.753 214.973 122.953 215.44 122.953 216C122.953 216.56 122.753 217.04 122.353 217.44C121.98 217.813 121.513 218 120.953 218C120.393 218 119.913 217.813 119.513 217.44C119.14 217.04 118.953 216.56 118.953 216C118.953 215.44 119.14 214.973 119.513 214.6C119.86 214.253 120.273 214.053 120.753 214C120.273 213.973 119.86 213.787 119.513 213.44C119.14 213.04 118.953 212.56 118.953 212ZM134.953 212C134.953 211.44 135.14 210.973 135.513 210.6C135.913 210.2 136.393 210 136.953 210C137.513 210 137.98 210.2 138.353 210.6C138.753 210.973 138.953 211.44 138.953 212C138.953 212.56 138.753 213.04 138.353 213.44C138.006 213.787 137.593 213.973 137.113 214C137.593 214.053 138.006 214.253 138.353 214.6C138.753 214.973 138.953 215.44 138.953 216C138.953 216.56 138.753 217.04 138.353 217.44C137.98 217.813 137.513 218 136.953 218C136.393 218 135.913 217.813 135.513 217.44C135.14 217.04 134.953 216.56 134.953 216C134.953 215.44 135.14 214.973 135.513 214.6C135.86 214.253 136.273 214.053 136.753 214C136.273 213.973 135.86 213.787 135.513 213.44C135.14 213.04 134.953 212.56 134.953 212Z" fill="black"/>
<path d="M409 30H228.151C219.867 30 213.151 36.7157 213.151 45V114.896C213.151 123.18 206.435 129.896 198.151 129.896H42C33.7157 129.896 27 136.611 27 144.896V232C27 240.284 33.7157 247 42 247H409C417.284 247 424 240.284 424 232V45C424 36.7157 417.284 30 409 30Z" stroke="black"/>
<path d="M438 1H201.5C193.216 1 186.5 7.71572 186.5 16V87.3652C186.5 95.6495 179.784 102.365 171.5 102.365H16C7.71573 102.365 1 109.081 1 117.365V256C1 264.284 7.71573 271 16 271H438C446.284 271 453 264.284 453 256L453 16C453 7.71573 446.284 1 438 1Z" stroke="black"/>
<path d="M421 240.5L449 266.323M419.5 34L449.5 6.5M219 32.7456L190 6M209.5 124.5L181 98.5M33 133.272L5 107.449M32.5 243.482L7 267" stroke="black"/>
<path d="M338.5 75V188.5H271M271 188.5L284.5 202M271 188.5L284.5 175" stroke="black"/>
</svg>
