<svg width="91" height="90" viewBox="0 0 91 90" fill="none" xmlns="http://www.w3.org/2000/svg">
<rect x="0.333374" width="90" height="90" rx="45" fill="white"/>
<path fill-rule="evenodd" clip-rule="evenodd" d="M36.6795 31.1539V29.4231C36.6795 26.5554 39.0042 24.2308 41.8718 24.2308H48.7949C51.6625 24.2308 53.9872 26.5554 53.9872 29.4231V31.1539H62.6411C65.5087 31.1539 67.8334 33.4785 67.8334 36.3462V42.7644C67.8334 44.2715 67.1822 45.6702 66.1001 46.6371C66.1018 46.6681 66.1026 46.6993 66.1026 46.7308V60.5769C66.1026 63.4446 63.7779 65.7692 60.9103 65.7692H29.7565C26.8888 65.7692 24.5641 63.4446 24.5641 60.5769V46.7308C24.5641 46.6993 24.565 46.6681 24.5666 46.6371C23.4846 45.6702 22.8334 44.2715 22.8334 42.7644V36.3462C22.8334 33.4785 25.158 31.1539 28.0257 31.1539H36.6795ZM40.1411 29.4231C40.1411 28.4672 40.916 27.6923 41.8718 27.6923H48.7949C49.7508 27.6923 50.5257 28.4672 50.5257 29.4231V31.1539H40.1411V29.4231ZM50.3772 53.161L62.6411 48.3431V60.5769C62.6411 61.5328 61.8662 62.3077 60.9103 62.3077H29.7565C28.8006 62.3077 28.0257 61.5328 28.0257 60.5769V48.3431L40.2896 53.161C40.8448 55.4309 42.8924 57.1154 45.3334 57.1154C47.7744 57.1154 49.822 55.4309 50.3772 53.161ZM47.0641 51.8836C47.0636 51.9063 47.0635 51.929 47.0639 51.9517C47.0486 52.8944 46.2797 53.6539 45.3334 53.6539C44.3871 53.6539 43.6181 52.8944 43.6028 51.9517C43.6032 51.929 43.6031 51.9063 43.6026 51.8836V50.1923H47.0641V51.8836ZM50.5257 49.3836L63.2739 44.3754C63.9363 44.1152 64.3718 43.4761 64.3718 42.7644V36.3462C64.3718 35.3903 63.5969 34.6154 62.6411 34.6154H28.0257C27.0698 34.6154 26.2949 35.3903 26.2949 36.3462V42.7644C26.2949 43.4761 26.7305 44.1152 27.3928 44.3754L40.1411 49.3836V48.4615C40.1411 47.5057 40.916 46.7308 41.8718 46.7308H48.7949C49.7508 46.7308 50.5257 47.5057 50.5257 48.4615V49.3836Z" fill="black"/>
</svg>
