<svg width="110" height="24" viewBox="0 0 110 24" fill="none" xmlns="http://www.w3.org/2000/svg">
<path d="M0 16.651L5.72288 8.5587L0.394934 0.469971H4.9001L9.86237 8.25991V0.469971H13.5155V8.25991L18.4741 0.469971H22.9793L17.6513 8.5587L23.3742 16.6474H18.5948L13.5119 8.85748V16.6474H9.85871V8.85748L4.77577 16.6474H0V16.651Z" fill="#1BACE4"/>
<path d="M40.4515 0.469971V16.651H36.4948V6.7624L29.0679 16.651H25.7804V0.469971H29.737V10.0274L37.1932 0.469971H40.4515Z" fill="#1BACE4"/>
<path d="M44.7116 16.651V0.469971H56.5816V4.27495H48.8511V16.651H44.7116Z" fill="#1BACE4"/>
<path d="M62.0009 23.8398L64.7033 16.5214L58.0735 0.469971H62.3666L66.6853 11.4781L70.9784 0.469971H75.1178L65.8332 23.8398H61.9973H62.0009Z" fill="#1BACE4"/>
<path d="M75.1179 16.651V13.2636C75.7176 13.3752 76.1783 13.368 76.5038 13.242C76.8292 13.116 77.0742 12.8676 77.2424 12.4933C77.4107 12.1189 77.5533 11.6077 77.6776 10.9562C77.8385 10.0958 77.9848 9.09507 78.1128 7.94673C78.2408 6.7984 78.3505 5.58167 78.4419 4.30015C78.5333 3.01862 78.6137 1.7407 78.6869 0.473572H91.1054V16.651H86.9659V4.27495H82.3108C82.2705 4.79332 82.2157 5.41248 82.1499 6.13244C82.084 6.8524 82.0146 7.59755 81.9378 8.37151C81.861 9.14546 81.7769 9.88342 81.6855 10.589C81.594 11.2945 81.499 11.8957 81.3966 12.3925C81.1516 13.6596 80.7932 14.6603 80.3142 15.3875C79.8388 16.1183 79.1842 16.5826 78.3505 16.7878C77.5167 16.993 76.4416 16.9462 75.1252 16.6438L75.1179 16.651Z" fill="#1BACE4"/>
<path d="M110 0.469971V16.651H106.043V6.7624L98.6164 16.651H95.3289V0.469971H99.2856V10.0274L106.742 0.469971H110Z" fill="#1BACE4"/>
</svg>
