<svg width="43" height="26" viewBox="0 0 43 26" fill="none" xmlns="http://www.w3.org/2000/svg">
<path d="M30.8474 1.03008C35.5919 1.51345 39.5574 4.66239 41.0826 9.1535C41.9461 11.7064 41.9085 14.6348 40.9746 17.1361C39.4917 21.1204 36.0518 24.0347 31.9267 24.795C30.0308 25.1422 28.1208 25.0484 26.2765 24.5134C23.1932 23.617 20.4807 21.3644 19.0025 18.4689C16.8437 14.25 17.374 9.13004 20.3493 5.46018C22.3016 3.04334 24.9343 1.55099 28.0316 1.09109C28.6041 1.00661 30.2701 0.969072 30.8474 1.03008ZM28.7121 2.53181C24.2961 2.93071 20.5652 6.14535 19.4952 10.4628C18.8992 12.8656 19.1902 15.4936 20.2883 17.6664C22.6676 22.3828 28.0175 24.6072 33.0202 22.9647C36.2536 21.8994 38.8488 19.201 39.792 15.9254C40.8761 12.1617 39.8061 8.14453 36.9904 5.43672C34.7565 3.28737 31.8 2.24554 28.7121 2.53181Z" fill="white" stroke="white"/>
<path fill-rule="evenodd" clip-rule="evenodd" d="M21.3574 4.35233C19.4474 2.5088 16.9375 1.31296 14.1609 1.03008C13.5837 0.96907 11.9177 1.00661 11.3451 1.09109C8.24782 1.55099 5.61509 3.04333 3.66284 5.46018C0.687542 9.13004 0.157242 14.25 2.31598 18.4689C3.79424 21.3644 6.50675 23.617 9.58999 24.5134C11.4343 25.0484 13.3443 25.1422 15.2402 24.795C17.5751 24.3646 19.6905 23.2442 21.3557 21.6302C20.9936 21.2809 20.6528 20.9092 20.3362 20.5178C19.2091 21.6169 17.8407 22.4682 16.3337 22.9647C11.3311 24.6072 5.98114 22.3828 3.60184 17.6664C2.5037 15.4936 2.21274 12.8656 2.80873 10.4628C3.87872 6.14535 7.60958 2.93071 12.0256 2.53181C15.1135 2.24554 18.0701 3.28737 20.3039 5.43672C20.316 5.44833 20.328 5.45997 20.34 5.47163C20.3431 5.46782 20.3462 5.464 20.3493 5.46018C20.6676 5.06617 21.0039 4.69673 21.3574 4.35233Z" fill="white"/>
<path d="M14.1609 1.03008L14.1083 1.52731L14.1102 1.5275L14.1609 1.03008ZM21.3574 4.35233L21.7063 4.71047L22.0757 4.35066L21.7047 3.99257L21.3574 4.35233ZM11.3451 1.09109L11.2722 0.596443L11.2717 0.59651L11.3451 1.09109ZM3.66284 5.46018L4.05124 5.77507L4.0518 5.77437L3.66284 5.46018ZM2.31598 18.4689L2.7613 18.2416L2.76109 18.2412L2.31598 18.4689ZM9.58999 24.5134L9.45041 24.9935L9.45069 24.9936L9.58999 24.5134ZM15.2402 24.795L15.3303 25.2868L15.3309 25.2867L15.2402 24.795ZM21.3557 21.6302L21.7037 21.9893L22.075 21.6294L21.7029 21.2704L21.3557 21.6302ZM20.3362 20.5178L20.725 20.2034L20.38 19.7767L19.9872 20.1598L20.3362 20.5178ZM16.3337 22.9647L16.4897 23.4398L16.4902 23.4396L16.3337 22.9647ZM3.60184 17.6664L4.04825 17.4412L4.04808 17.4409L3.60184 17.6664ZM2.80873 10.4628L3.29403 10.5832L3.29405 10.5831L2.80873 10.4628ZM12.0256 2.53181L12.0706 3.02978L12.0718 3.02967L12.0256 2.53181ZM20.3039 5.43672L19.9572 5.79702L19.9573 5.79711L20.3039 5.43672ZM20.34 5.47163L19.9917 5.83039L20.3845 6.21168L20.7288 5.78608L20.34 5.47163ZM20.3493 5.46018L20.7377 5.77506L20.7383 5.77437L20.3493 5.46018ZM14.1102 1.5275C16.7746 1.79896 19.1802 2.94588 21.0102 4.7121L21.7047 3.99257C19.7145 2.07173 17.1004 0.826971 14.2116 0.532654L14.1102 1.5275ZM11.4181 1.58573C11.6704 1.5485 12.2023 1.51822 12.7622 1.50591C13.3226 1.49359 13.8547 1.50051 14.1083 1.52731L14.2134 0.532848C13.8898 0.498642 13.3003 0.493834 12.7403 0.506149C12.1798 0.518473 11.5924 0.549198 11.2722 0.596443L11.4181 1.58573ZM4.0518 5.77437C5.92405 3.45656 8.44346 2.02742 11.4186 1.58566L11.2717 0.59651C8.05217 1.07456 5.30614 2.63011 3.27389 5.146L4.0518 5.77437ZM2.76109 18.2412C0.692144 14.1977 1.20105 9.2906 4.05124 5.77507L3.27445 5.1453C0.174038 8.96947 -0.377661 14.3023 1.87086 18.6967L2.76109 18.2412ZM9.72957 24.0333C6.78042 23.1759 4.17767 21.0159 2.7613 18.2416L1.87066 18.6963C3.41082 21.713 6.23308 24.0582 9.45041 24.9935L9.72957 24.0333ZM15.1502 24.3031C13.3299 24.6366 11.4984 24.5464 9.72928 24.0332L9.45069 24.9936C11.3702 25.5504 13.3587 25.6479 15.3303 25.2868L15.1502 24.3031ZM21.0078 21.2712C19.4113 22.8185 17.3848 23.8913 15.1496 24.3032L15.3309 25.2867C17.7655 24.838 19.9697 23.6699 21.7037 21.9893L21.0078 21.2712ZM21.7029 21.2704C21.3555 20.9352 21.0285 20.5787 20.725 20.2034L19.9475 20.8322C20.277 21.2397 20.6318 21.6266 21.0086 21.9901L21.7029 21.2704ZM16.4902 23.4396C18.0728 22.9182 19.5063 22.0255 20.6853 20.8757L19.9872 20.1598C18.912 21.2083 17.6087 22.0182 16.1772 22.4898L16.4902 23.4396ZM3.15543 17.8916C5.64568 22.8279 11.2512 25.1597 16.4897 23.4398L16.1777 22.4897C11.4109 24.0548 6.3166 21.9377 4.04825 17.4412L3.15543 17.8916ZM2.32344 10.3424C1.69905 12.8597 2.00259 15.6106 3.15559 17.892L4.04808 17.4409C3.0048 15.3766 2.72642 12.8715 3.29403 10.5832L2.32344 10.3424ZM11.9806 2.03384C7.35088 2.45204 3.44432 5.81959 2.32342 10.3425L3.29405 10.5831C4.31311 6.4711 7.86828 3.40937 12.0706 3.02978L11.9806 2.03384ZM20.6506 5.07642C18.3125 2.8268 15.2128 1.73419 11.9795 2.03395L12.0718 3.02967C15.0143 2.75689 17.8276 3.74793 19.9572 5.79702L20.6506 5.07642ZM20.6883 5.11288C20.6757 5.10069 20.6631 5.08851 20.6505 5.07633L19.9573 5.79711C19.9688 5.80816 19.9803 5.81925 19.9917 5.83039L20.6883 5.11288ZM20.7288 5.78608C20.7318 5.78237 20.7347 5.7787 20.7377 5.77506L19.9609 5.14531C19.9577 5.1493 19.9545 5.15326 19.9513 5.15719L20.7288 5.78608ZM20.7383 5.77437C21.0443 5.39549 21.3673 5.04076 21.7063 4.71047L21.0085 3.9942C20.6405 4.35271 20.2908 4.73686 19.9603 5.146L20.7383 5.77437Z" fill="white"/>
<path d="M29.3931 4.05228C29.318 4.09452 29.2147 4.16491 29.1631 4.20714C28.9426 4.40425 28.9472 4.32916 28.9472 8.86251C28.9472 13.5601 28.9332 13.3442 29.2335 13.5648C29.4729 13.7431 34.7711 15.9957 34.9495 15.9957C35.583 15.9957 35.935 15.2355 35.5173 14.7615C35.4094 14.6348 34.9589 14.4283 32.9174 13.5554L30.449 12.4995V8.54339C30.449 5.26774 30.4396 4.56381 30.3833 4.4324C30.2378 4.08044 29.7169 3.87864 29.3931 4.05228Z" fill="white"/>
<path d="M14.1655 19H12.6825V10.395C12.6825 9.90071 12.6882 9.50408 12.6997 9.20518C12.7112 8.90628 12.7285 8.59588 12.7515 8.27398C12.5675 8.45793 12.4008 8.61312 12.2514 8.73958C12.1019 8.86604 11.9122 9.02699 11.6823 9.22243L10.3717 10.2916L9.57849 9.27416L12.9067 6.6875H14.1655V19Z" fill="white"/>
</svg>
