<svg width="146" height="83" viewBox="0 0 146 83" fill="none" xmlns="http://www.w3.org/2000/svg">
<rect x="0.5" y="0.5" width="145" height="82" rx="5.5" fill="#F9F9F9"/>
<rect x="0.5" y="0.5" width="145" height="82" rx="5.5" stroke="#F5F5F5"/>
<path d="M34.9126 31.4146C37.3153 31.4207 39.718 31.4177 42.1219 31.4156C43.2533 31.4022 44.386 31.9332 45.0036 32.8005C45.5784 33.5425 45.7969 34.4406 46.0798 35.2955C46.95 37.9605 47.8066 40.6299 48.6788 43.2949C48.6933 43.5359 49.0856 43.628 49.1622 43.372C50.0526 40.6812 50.9113 37.9821 51.7948 35.2892C52.098 34.3401 52.3595 33.3325 53.066 32.5524C53.5202 32.0469 54.1558 31.6872 54.8468 31.5191C55.435 31.3704 56.0515 31.427 56.6544 31.4177C58.7642 31.4249 60.8751 31.4012 62.9847 31.4299C62.97 38.1247 62.9925 44.8193 62.9725 51.5129C60.6903 51.4997 58.4069 51.5314 56.1247 51.4966C56.1247 47.5695 56.135 43.6425 56.1203 39.7155C56.1056 39.3659 55.47 39.3956 55.4272 39.7248C54.0681 43.6475 52.6997 47.5685 51.3609 51.4966C49.7495 51.5303 48.1355 51.5037 46.5227 51.5099C45.1659 47.5869 43.8192 43.6609 42.4488 39.7421C42.3912 39.4182 41.9709 39.4069 41.7444 39.5966C41.7488 43.5646 41.7387 47.5326 41.7488 51.5007C39.4701 51.5262 37.1913 51.5016 34.9126 51.5129C34.9115 44.8131 34.9115 38.1144 34.9126 31.4146ZM66.1007 31.427C68.3786 31.3951 70.6585 31.4433 72.9361 31.4012C72.972 35.3755 72.9407 39.3506 72.9518 43.3249C73.1468 43.4836 73.5052 43.5328 73.6247 43.2694C75.1417 40.3776 76.6518 37.4829 78.1675 34.5903C78.6477 33.6923 79.0376 32.7184 79.8208 31.9927C80.1714 31.6914 80.6076 31.3991 81.1148 31.4196C83.4375 31.4207 85.76 31.4064 88.0839 31.427C88.0874 38.1184 88.0874 44.8101 88.0839 51.5016C85.8054 51.5181 83.5252 51.517 81.2453 51.5027C81.2444 47.5388 81.2543 43.5738 81.2409 39.61C81.2352 39.2696 80.6019 39.2972 80.5365 39.6027C79.1074 42.4708 77.6841 45.341 76.2561 48.2092C75.8167 49.0794 75.3998 49.9763 74.7437 50.7348C74.3786 51.1572 73.8454 51.5365 73.2246 51.5109C70.8512 51.5099 68.4767 51.514 66.1033 51.5088C66.1033 44.8152 66.1065 38.1205 66.1007 31.427ZM91.4165 40.5981C98.5751 40.5539 105.736 40.5981 112.895 40.5765C112.653 41.4735 112.016 42.2455 111.341 42.9189C110.008 44.234 108.094 45.0366 106.126 45.0838C103.511 45.096 100.896 45.0817 98.2798 45.0909C98.2641 47.2323 98.2798 49.3726 98.2731 51.514C95.992 51.5047 93.7098 51.5201 91.4278 51.5047C91.4165 47.8698 91.4391 44.234 91.4165 40.5981Z" fill="#3DA536"/>
<path d="M90.5461 31.4269C95.8949 31.4206 101.244 31.4166 106.592 31.4216C107.995 31.5129 109.35 32.0305 110.461 32.8075C112.075 33.9506 113.164 35.7043 113.343 37.5628C113.385 38.2322 113.37 38.9068 113.261 39.5699C109.984 39.5873 106.706 39.571 103.429 39.575C102.304 39.5658 101.173 39.6171 100.056 39.4665C97.5392 39.1763 95.0576 38.223 93.2747 36.5511C91.7713 35.1805 90.8449 33.3335 90.5461 31.4269Z" fill="#008CD2"/>
</svg>
