<?xml version="1.0" encoding="utf-8"?><svg viewBox="0 0 454 272" xmlns="http://www.w3.org/2000/svg" xmlns:xlink="http://www.w3.org/1999/xlink"><style>:root>svg{display:none}:root>svg:target{display:block}</style><svg fill="none" viewBox="0 0 68 14" id="burger-close" xmlns="http://www.w3.org/2000/svg"><circle cx="6.906" cy="6.906" r="6.906" fill="#1BACE4"/><circle cx="34" cy="6.906" r="6.906" fill="#1BACE4"/><circle cx="61.094" cy="6.906" r="6.906" fill="#1BACE4"/></svg><svg fill="none" viewBox="0 0 37 36" id="burger-open" xmlns="http://www.w3.org/2000/svg"><circle cx="25.233" cy="10.549" r="2.577" transform="rotate(45 25.233 10.55)" fill="#1BACE4"/><circle cx="32.398" cy="3.644" r="2.577" transform="rotate(45 32.398 3.644)" fill="#1BACE4"/><circle cx="7.916" cy="28.127" r="2.577" transform="rotate(45 7.916 28.127)" fill="#1BACE4"/><circle cx="21.589" cy="14.193" r="2.577" transform="rotate(45 21.589 14.193)" fill="#1BACE4"/><circle cx="28.754" cy="7.288" r="2.577" transform="rotate(45 28.754 7.288)" fill="#1BACE4"/><circle cx="4.272" cy="31.771" r="2.577" transform="rotate(45 4.272 31.77)" fill="#1BACE4"/><circle cx="32.399" cy="31.771" r="2.577" transform="rotate(135 32.399 31.77)" fill="#1BACE4"/><circle cx="28.754" cy="28.127" r="2.577" transform="rotate(135 28.754 28.127)" fill="#1BACE4"/><circle cx="7.288" cy="7.288" r="2.577" transform="rotate(135 7.288 7.288)" fill="#1BACE4"/><circle cx="3.644" cy="3.644" r="2.577" transform="rotate(135 3.644 3.644)" fill="#1BACE4"/><circle cx="18.205" cy="17.577" r="2.577" transform="rotate(45 18.205 17.577)" fill="#1BACE4"/><circle cx="14.561" cy="21.221" r="2.577" transform="rotate(45 14.561 21.221)" fill="#1BACE4"/><circle cx="11.177" cy="24.605" r="2.577" transform="rotate(45 11.177 24.605)" fill="#1BACE4"/><circle cx="25.233" cy="24.605" r="2.577" transform="rotate(135 25.233 24.605)" fill="#1BACE4"/><circle cx="21.589" cy="20.961" r="2.577" transform="rotate(135 21.589 20.96)" fill="#1BACE4"/><circle cx="18.205" cy="17.577" r="2.577" transform="rotate(135 18.205 17.577)" fill="#1BACE4"/><circle cx="14.561" cy="13.933" r="2.577" transform="rotate(135 14.561 13.933)" fill="#1BACE4"/><circle cx="11.177" cy="10.549" r="2.577" transform="rotate(135 11.177 10.55)" fill="#1BACE4"/></svg><svg fill="none" viewBox="0 0 454 272" id="enter-default-btn" xmlns="http://www.w3.org/2000/svg"><path d="M51 168c0-.56.187-1.027.56-1.4.4-.4.88-.6 1.44-.6.56 0 1.027.2 1.4.6.347.347.547.76.6 1.24.027-.48.213-.893.56-1.24.4-.4.88-.6 1.44-.6.56 0 1.027.2 1.4.6.347.347.547.76.6 1.24.027-.48.213-.893.56-1.24.4-.4.88-.6 1.44-.6.56 0 1.027.2 1.4.6.4.373.6.84.6 1.4 0 .56-.2 1.04-.6 1.44-.373.373-.84.56-1.4.56-.56 0-1.04-.187-1.44-.56a1.846 1.846 0 01-.56-1.24c-.053.48-.253.893-.6 1.24-.373.373-.84.56-1.4.56-.56 0-1.04-.187-1.44-.56a1.846 1.846 0 01-.56-1.24c-.053.48-.253.893-.6 1.24-.373.373-.84.56-1.4.56-.56 0-1.04-.187-1.44-.56-.373-.4-.56-.88-.56-1.44zm0-16c0-.56.187-1.027.56-1.4.4-.4.88-.6 1.44-.6.56 0 1.027.2 1.4.6.4.373.6.84.6 1.4 0-.56.187-1.027.56-1.4.4-.4.88-.6 1.44-.6.56 0 1.027.2 1.4.6.347.347.547.76.6 1.24.027-.48.213-.893.56-1.24.4-.4.88-.6 1.44-.6.56 0 1.027.2 1.4.6.4.373.6.84.6 1.4 0 .56-.2 1.04-.6 1.44-.373.373-.84.56-1.4.56-.56 0-1.04-.187-1.44-.56a1.846 1.846 0 01-.56-1.24c-.053.48-.253.893-.6 1.24-.373.373-.84.56-1.4.56-.56 0-1.04-.187-1.44-.56a1.846 1.846 0 01-.56-1.24c-.053.48-.253.893-.6 1.24-.373.373-.84.56-1.4.56-.56 0-1.04-.187-1.44-.56-.373-.4-.56-.88-.56-1.44zm4 8c0-.56.187-1.027.56-1.4.4-.4.88-.6 1.44-.6.56 0 1.027.2 1.4.6.347.347.547.76.6 1.24.027-.48.213-.893.56-1.24.4-.4.88-.6 1.44-.6.56 0 1.027.2 1.4.6.4.373.6.84.6 1.4 0 .56-.2 1.04-.6 1.44-.373.373-.84.56-1.4.56-.56 0-1.04-.187-1.44-.56a1.846 1.846 0 01-.56-1.24c-.053.48-.253.893-.6 1.24-.373.373-.84.56-1.4.56-.56 0-1.04-.187-1.44-.56-.373-.4-.56-.88-.56-1.44zm8-4c0-.56.187-1.027.56-1.4.4-.4.88-.6 1.44-.6.56 0 1.027.2 1.4.6.4.373.6.84.6 1.4 0 .56-.2 1.04-.6 1.44-.373.373-.84.56-1.4.56-.56 0-1.04-.187-1.44-.56-.373-.4-.56-.88-.56-1.44zm0 8c0-.56.187-1.027.56-1.4.4-.4.88-.6 1.44-.6.56 0 1.027.2 1.4.6.4.373.6.84.6 1.4 0 .56-.2 1.04-.6 1.44-.373.373-.84.56-1.4.56-.56 0-1.04-.187-1.44-.56-.373-.4-.56-.88-.56-1.44zm-16 0c0-.56.187-1.027.56-1.4.4-.4.88-.6 1.44-.6.56 0 1.027.2 1.4.6.4.373.6.84.6 1.4 0 .56-.2 1.04-.6 1.44-.373.373-.84.56-1.4.56-.56 0-1.04-.187-1.44-.56-.373-.4-.56-.88-.56-1.44zm0-8c0-.56.187-1.027.56-1.4.4-.4.88-.6 1.44-.6.56 0 1.027.2 1.4.6.4.373.6.84.6 1.4 0 .56-.2 1.04-.6 1.44-.373.373-.84.56-1.4.56-.56 0-1.04-.187-1.44-.56-.373-.4-.56-.88-.56-1.44zm39.984 8c0-.533.174-.987.52-1.36.32-.347.747-.56 1.28-.64-.506-.053-.92-.24-1.24-.56-.32-.32-.506-.733-.56-1.24-.08.533-.293.96-.64 1.28-.373.347-.826.52-1.36.52-.533 0-.986-.173-1.36-.52-.373-.32-.586-.747-.64-1.28-.08.533-.293.96-.64 1.28-.373.347-.826.52-1.36.52-.533 0-.986-.173-1.36-.52-.373-.32-.586-.747-.64-1.28-.08.533-.293.96-.64 1.28-.373.347-.826.52-1.36.52-.56 0-1.04-.187-1.44-.56-.373-.4-.56-.88-.56-1.44 0-.56.187-1.027.56-1.4.4-.4.88-.6 1.44-.6.56 0 1.027.2 1.4.6.4.373.6.84.6 1.4 0-.56.187-1.027.56-1.4.4-.4.88-.6 1.44-.6.56 0 1.027.2 1.4.6.4.373.6.84.6 1.4 0-.56.187-1.027.56-1.4.4-.4.88-.6 1.44-.6.534 0 .987.173 1.36.52.374.347.587.787.64 1.32.054-.48.24-.893.56-1.24.32-.32.734-.52 1.24-.6-.533-.053-.96-.267-1.28-.64a1.926 1.926 0 01-.52-1.36c0-.56.187-1.027.56-1.4.4-.4.88-.6 1.44-.6.56 0 1.027.2 1.4.6.4.373.6.84.6 1.4 0 .533-.173.987-.52 1.36a1.975 1.975 0 01-1.28.64c.507.08.934.293 1.28.64.347.373.52.827.52 1.36 0 .533-.173.987-.52 1.36a1.975 1.975 0 01-1.28.64c.507.08.934.293 1.28.64.347.373.52.827.52 1.36 0 .533-.173.987-.52 1.36a1.975 1.975 0 01-1.28.64c.507.08.934.293 1.28.64.347.373.52.827.52 1.36 0 .56-.2 1.04-.6 1.44-.373.373-.84.56-1.4.56-.533 0-.986-.173-1.36-.52-.373-.32-.586-.747-.64-1.28-.08.533-.293.96-.64 1.28-.373.347-.826.52-1.36.52-.533 0-.986-.173-1.36-.52-.373-.32-.586-.747-.64-1.28-.08.533-.293.96-.64 1.28-.373.347-.826.52-1.36.52-.533 0-.986-.173-1.36-.52-.373-.32-.586-.747-.64-1.28-.08.533-.293.96-.64 1.28-.373.347-.826.52-1.36.52-.56 0-1.04-.187-1.44-.56-.373-.4-.56-.88-.56-1.44 0-.56.187-1.027.56-1.4.4-.4.88-.6 1.44-.6.534 0 .987.173 1.36.52.374.347.587.787.64 1.32.054-.533.267-.973.64-1.32.374-.347.827-.52 1.36-.52.56 0 1.027.2 1.4.6.347.347.547.76.6 1.24.027-.48.214-.893.56-1.24.4-.4.88-.6 1.44-.6.56 0 1.027.2 1.4.6.347.347.547.76.6 1.24.027-.453.2-.853.52-1.2s.747-.56 1.28-.64c-.533-.053-.96-.267-1.28-.64a1.926 1.926 0 01-.52-1.36zm-12-12c0-.56.187-1.027.56-1.4.4-.4.88-.6 1.44-.6.56 0 1.027.2 1.4.6.4.373.6.84.6 1.4 0-.56.187-1.027.56-1.4.4-.4.88-.6 1.44-.6.56 0 1.027.2 1.4.6.347.347.547.76.6 1.24.027-.48.214-.893.56-1.24.4-.4.88-.6 1.44-.6.56 0 1.027.2 1.4.6.4.373.6.84.6 1.4 0 .56-.2 1.04-.6 1.44-.373.373-.84.56-1.4.56-.533 0-.986-.173-1.36-.52-.373-.32-.586-.747-.64-1.28-.08.533-.293.96-.64 1.28-.373.347-.826.52-1.36.52-.533 0-.986-.173-1.36-.52-.373-.32-.586-.747-.64-1.28-.08.533-.293.96-.64 1.28-.373.347-.826.52-1.36.52-.56 0-1.04-.187-1.44-.56-.373-.4-.56-.88-.56-1.44zm-4 12c0-.56.187-1.027.56-1.4.4-.4.88-.6 1.44-.6.56 0 1.027.2 1.4.6.4.373.6.84.6 1.4 0 .56-.2 1.04-.6 1.44-.373.373-.84.56-1.4.56-.56 0-1.04-.187-1.44-.56-.373-.4-.56-.88-.56-1.44zm39.985 0c0-.56.186-1.027.56-1.4.346-.347.76-.547 1.24-.6a1.844 1.844 0 01-1.24-.56c-.374-.4-.56-.88-.56-1.44 0-.56.186-1.027.56-1.4.346-.347.76-.547 1.24-.6a1.844 1.844 0 01-1.24-.56c-.374-.4-.56-.88-.56-1.44 0-.56.186-1.027.56-1.4.346-.347.76-.547 1.24-.6a1.844 1.844 0 01-1.24-.56 1.842 1.842 0 01-.56-1.24c-.054.48-.254.893-.6 1.24-.374.373-.84.56-1.4.56-.56 0-1.04-.187-1.44-.56a1.842 1.842 0 01-.56-1.24c-.054.48-.254.893-.6 1.24-.374.373-.84.56-1.4.56-.56 0-1.04-.187-1.44-.56a1.842 1.842 0 01-.56-1.24c-.054.48-.254.893-.6 1.24-.374.373-.84.56-1.4.56-.56 0-1.04-.187-1.44-.56a1.846 1.846 0 01-.56-1.24c-.054.48-.254.893-.6 1.24-.347.347-.76.533-1.24.56.48.053.893.253 1.24.6.4.373.6.84.6 1.4 0 .56-.2 1.04-.6 1.44-.347.347-.76.533-1.24.56.48.053.893.253 1.24.6.4.373.6.84.6 1.4 0 .56-.2 1.04-.6 1.44-.347.347-.76.533-1.24.56.48.053.893.253 1.24.6.4.373.6.84.6 1.4 0 .56-.2 1.04-.6 1.44-.347.347-.76.533-1.24.56.48.053.893.253 1.24.6.4.373.6.84.6 1.4 0 .56-.2 1.04-.6 1.44-.374.373-.84.56-1.4.56-.56 0-1.04-.187-1.44-.56-.374-.4-.56-.88-.56-1.44 0-.56.186-1.027.56-1.4a2.02 2.02 0 011.24-.6 1.846 1.846 0 01-1.24-.56c-.374-.4-.56-.88-.56-1.44 0-.56.186-1.027.56-1.4a2.02 2.02 0 011.24-.6 1.846 1.846 0 01-1.24-.56c-.374-.4-.56-.88-.56-1.44 0-.56.186-1.027.56-1.4a2.02 2.02 0 011.24-.6 1.846 1.846 0 01-1.24-.56c-.374-.4-.56-.88-.56-1.44 0-.56.186-1.027.56-1.4a2.02 2.02 0 011.24-.6 1.846 1.846 0 01-1.24-.56c-.374-.4-.56-.88-.56-1.44 0-.56.186-1.027.56-1.4.4-.4.88-.6 1.44-.6.56 0 1.026.2 1.4.6.4.373.6.84.6 1.4 0-.56.186-1.027.56-1.4.4-.4.88-.6 1.44-.6.56 0 1.026.2 1.4.6.4.373.6.84.6 1.4 0-.56.186-1.027.56-1.4.4-.4.88-.6 1.44-.6.56 0 1.026.2 1.4.6.4.373.6.84.6 1.4 0-.56.186-1.027.56-1.4.4-.4.88-.6 1.44-.6.56 0 1.026.2 1.4.6.346.347.546.76.6 1.24.026-.48.213-.893.56-1.24.4-.4.88-.6 1.44-.6.56 0 1.026.2 1.4.6.4.373.6.84.6 1.4 0 .56-.2 1.04-.6 1.44-.347.347-.76.533-1.24.56.48.053.893.253 1.24.6.4.373.6.84.6 1.4 0 .56-.2 1.04-.6 1.44-.347.347-.76.533-1.24.56.48.053.893.253 1.24.6.4.373.6.84.6 1.4 0 .56-.2 1.04-.6 1.44-.347.347-.76.533-1.24.56.48.053.893.253 1.24.6.4.373.6.84.6 1.4 0 .56-.2 1.04-.6 1.44-.347.347-.76.533-1.24.56.48.053.893.253 1.24.6.4.373.6.84.6 1.4 0 .56-.2 1.04-.6 1.44-.374.373-.84.56-1.4.56-.56 0-1.04-.187-1.44-.56-.374-.4-.56-.88-.56-1.44 0-.56.186-1.027.56-1.4.346-.347.76-.547 1.24-.6a1.844 1.844 0 01-1.24-.56c-.374-.4-.56-.88-.56-1.44zm11.984 4c0-.56.187-1.027.56-1.4.4-.4.88-.6 1.44-.6.56 0 1.027.2 1.4.6.4.373.6.84.6 1.4 0-.56.187-1.027.56-1.4.4-.4.88-.6 1.44-.6.56 0 1.027.2 1.4.6.4.373.6.84.6 1.4 0-.56.187-1.027.56-1.4.4-.4.88-.6 1.44-.6.56 0 1.027.2 1.4.6.4.373.6.84.6 1.4 0 .56-.2 1.04-.6 1.44-.373.373-.84.56-1.4.56-.533 0-.987-.173-1.36-.52-.373-.32-.587-.747-.64-1.28-.08.533-.293.96-.64 1.28-.373.347-.827.52-1.36.52-.533 0-.987-.173-1.36-.52-.373-.32-.587-.747-.64-1.28-.08.533-.293.96-.64 1.28-.373.347-.827.52-1.36.52-.56 0-1.04-.187-1.44-.56-.373-.4-.56-.88-.56-1.44zm0-16c0-.56.187-1.027.56-1.4.4-.4.88-.6 1.44-.6.533 0 .987.173 1.36.52.373.347.587.787.64 1.32.053-.533.267-.973.64-1.32.373-.347.827-.52 1.36-.52.533 0 .987.173 1.36.52.347.347.56.773.64 1.28.053-.507.267-.933.64-1.28s.827-.52 1.36-.52c.56 0 1.027.2 1.4.6.4.373.6.84.6 1.4 0 .56-.2 1.04-.6 1.44-.373.373-.84.56-1.4.56-.533 0-.987-.173-1.36-.52-.373-.32-.587-.747-.64-1.28-.08.533-.293.96-.64 1.28-.373.347-.827.52-1.36.52-.533 0-.987-.173-1.36-.52-.373-.32-.587-.747-.64-1.28-.08.533-.293.96-.64 1.28-.373.347-.827.52-1.36.52-.56 0-1.04-.187-1.44-.56-.373-.4-.56-.88-.56-1.44zm-4 8c0-.533.173-.987.52-1.36.32-.347.747-.56 1.28-.64-.533-.053-.96-.267-1.28-.64a1.925 1.925 0 01-.52-1.36c0-.56.187-1.027.56-1.4.4-.4.88-.6 1.44-.6.56 0 1.027.2 1.4.6.4.373.6.84.6 1.4 0 .533-.173.987-.52 1.36a1.975 1.975 0 01-1.28.64c.507.08.933.293 1.28.64.347.373.52.827.52 1.36 0 .533-.173.987-.52 1.36a1.975 1.975 0 01-1.28.64c.507.08.933.293 1.28.64.347.373.52.827.52 1.36 0 .56-.2 1.04-.6 1.44-.373.373-.84.56-1.4.56-.56 0-1.04-.187-1.44-.56-.373-.4-.56-.88-.56-1.44 0-.533.173-.987.52-1.36.32-.347.747-.56 1.28-.64-.533-.053-.96-.267-1.28-.64a1.925 1.925 0 01-.52-1.36zm16 0c0-.533.173-.987.52-1.36.32-.347.747-.56 1.28-.64-.533-.053-.96-.267-1.28-.64a1.925 1.925 0 01-.52-1.36c0-.56.187-1.027.56-1.4.4-.4.88-.6 1.44-.6.56 0 1.027.2 1.4.6.4.373.6.84.6 1.4 0 .533-.173.987-.52 1.36a1.975 1.975 0 01-1.28.64c.507.08.933.293 1.28.64.347.373.52.827.52 1.36 0 .533-.173.987-.52 1.36a1.975 1.975 0 01-1.28.64c.507.08.933.293 1.28.64.347.373.52.827.52 1.36 0 .56-.2 1.04-.6 1.44-.373.373-.84.56-1.4.56-.56 0-1.04-.187-1.44-.56-.373-.4-.56-.88-.56-1.44 0-.533.173-.987.52-1.36.32-.347.747-.56 1.28-.64-.533-.053-.96-.267-1.28-.64a1.925 1.925 0 01-.52-1.36zm23.985 4c0-.56.186-1.027.56-1.4.346-.347.76-.547 1.24-.6a1.844 1.844 0 01-1.24-.56c-.374-.4-.56-.88-.56-1.44 0-.56.186-1.027.56-1.4.346-.347.76-.547 1.24-.6a1.844 1.844 0 01-1.24-.56c-.374-.4-.56-.88-.56-1.44 0-.56.186-1.027.56-1.4.346-.347.76-.547 1.24-.6a1.844 1.844 0 01-1.24-.56 1.842 1.842 0 01-.56-1.24c-.054.48-.254.893-.6 1.24-.374.373-.84.56-1.4.56-.56 0-1.04-.187-1.44-.56a1.842 1.842 0 01-.56-1.24c-.054.48-.254.893-.6 1.24-.374.373-.84.56-1.4.56-.56 0-1.04-.187-1.441-.56a1.845 1.845 0 01-.559-1.24c-.054.48-.254.893-.6 1.24-.347.347-.76.533-1.24.56.48.053.893.253 1.24.6.4.373.6.84.6 1.4 0 .56-.2 1.04-.6 1.44-.347.347-.76.533-1.24.56.48.053.893.253 1.24.6.4.373.6.84.6 1.4 0 .56-.2 1.04-.6 1.44-.347.347-.76.533-1.24.56.48.053.893.253 1.24.6.4.373.6.84.6 1.4 0 .56-.2 1.04-.6 1.44-.374.373-.84.56-1.4.56-.56 0-1.04-.187-1.44-.56-.374-.4-.56-.88-.56-1.44 0-.56.186-1.027.56-1.4.346-.347.76-.547 1.24-.6a1.844 1.844 0 01-1.24-.56c-.374-.4-.56-.88-.56-1.44 0-.56.186-1.027.56-1.4.346-.347.76-.547 1.24-.6a1.844 1.844 0 01-1.24-.56c-.374-.4-.56-.88-.56-1.44 0-.56.186-1.027.56-1.4.346-.347.76-.547 1.24-.6a1.844 1.844 0 01-1.24-.56c-.374-.4-.56-.88-.56-1.44 0-.56.186-1.027.56-1.4.4-.4.88-.6 1.44-.6.56 0 1.026.2 1.4.6.346.347.546.76.6 1.24.026-.48.213-.893.559-1.24.401-.4.881-.6 1.441-.6s1.026.2 1.4.6c.4.373.6.84.6 1.4 0-.56.186-1.027.56-1.4.4-.4.88-.6 1.44-.6.56 0 1.026.2 1.4.6.346.347.546.76.6 1.24.026-.48.213-.893.56-1.24.4-.4.88-.6 1.44-.6.56 0 1.026.2 1.4.6.4.373.6.84.6 1.4 0 .56-.2 1.04-.6 1.44-.347.347-.76.533-1.24.56.48.053.893.253 1.24.6.4.373.6.84.6 1.4 0 .56-.2 1.04-.6 1.44-.347.347-.76.533-1.24.56.48.053.893.253 1.24.6.4.373.6.84.6 1.4 0 .56-.2 1.04-.6 1.44-.347.347-.76.533-1.24.56.48.053.893.253 1.24.6.4.373.6.84.6 1.4 0 .56-.2 1.04-.6 1.44-.347.347-.76.533-1.24.56.48.053.893.253 1.24.6.4.373.6.84.6 1.4 0 .56-.2 1.04-.6 1.44-.374.373-.84.56-1.4.56-.56 0-1.04-.187-1.44-.56-.374-.4-.56-.88-.56-1.44 0-.56.186-1.027.56-1.4.346-.347.76-.547 1.24-.6a1.844 1.844 0 01-1.24-.56c-.374-.4-.56-.88-.56-1.44zm-16 4c0-.56.186-1.027.56-1.4.4-.4.88-.6 1.44-.6.56 0 1.026.2 1.4.6.4.373.6.84.6 1.4 0 .56-.2 1.04-.6 1.44-.374.373-.84.56-1.4.56-.56 0-1.04-.187-1.44-.56-.374-.4-.56-.88-.56-1.44zm39.984-4c0-.56.187-1.027.56-1.4.347-.347.76-.547 1.24-.6a1.846 1.846 0 01-1.24-.56 1.846 1.846 0 01-.56-1.24c-.053.48-.253.893-.6 1.24-.373.373-.84.56-1.4.56-.56 0-1.04-.187-1.44-.56a1.846 1.846 0 01-.56-1.24c-.053.48-.253.893-.6 1.24-.373.373-.84.56-1.4.56-.56 0-1.04-.187-1.44-.56a1.846 1.846 0 01-.56-1.24c-.053.48-.253.893-.6 1.24-.373.373-.84.56-1.4.56-.56 0-1.04-.187-1.44-.56a1.846 1.846 0 01-.56-1.24c-.053.48-.253.893-.6 1.24s-.76.533-1.24.56c.48.053.893.253 1.24.6.4.373.6.84.6 1.4 0 .56-.2 1.04-.6 1.44-.347.347-.76.533-1.24.56.48.053.893.253 1.24.6.4.373.6.84.6 1.4 0 .56-.2 1.04-.6 1.44-.373.373-.84.56-1.4.56-.56 0-1.04-.187-1.44-.56-.373-.4-.56-.88-.56-1.44 0-.56.187-1.027.56-1.4.347-.347.76-.547 1.24-.6a1.846 1.846 0 01-1.24-.56c-.373-.4-.56-.88-.56-1.44 0-.56.187-1.027.56-1.4.347-.347.76-.547 1.24-.6a1.846 1.846 0 01-1.24-.56c-.373-.4-.56-.88-.56-1.44 0-.56.187-1.027.56-1.4.347-.347.76-.547 1.24-.6a1.846 1.846 0 01-1.24-.56c-.373-.4-.56-.88-.56-1.44 0-.56.187-1.027.56-1.4.347-.347.76-.547 1.24-.6a1.846 1.846 0 01-1.24-.56c-.373-.4-.56-.88-.56-1.44 0-.56.187-1.027.56-1.4.4-.4.88-.6 1.44-.6.56 0 1.027.2 1.4.6.4.373.6.84.6 1.4 0 .56-.2 1.04-.6 1.44-.347.347-.76.533-1.24.56.48.053.893.253 1.24.6.4.373.6.84.6 1.4 0 .56-.2 1.04-.6 1.44-.347.347-.76.533-1.24.56.48.053.893.253 1.24.6s.547.76.6 1.24c.027-.48.213-.893.56-1.24.4-.4.88-.6 1.44-.6.56 0 1.027.2 1.4.6.347.347.547.76.6 1.24.027-.48.213-.893.56-1.24.4-.4.88-.6 1.44-.6.56 0 1.027.2 1.4.6.4.373.6.84.6 1.4 0-.56.187-1.027.56-1.4.4-.4.88-.6 1.44-.6.56 0 1.027.2 1.4.6.347.347.547.76.6 1.24.027-.48.213-.893.56-1.24.347-.347.76-.547 1.24-.6a1.846 1.846 0 01-1.24-.56c-.373-.4-.56-.88-.56-1.44 0-.56.187-1.027.56-1.4.347-.347.76-.547 1.24-.6a1.846 1.846 0 01-1.24-.56c-.373-.4-.56-.88-.56-1.44 0-.56.187-1.027.56-1.4.4-.4.88-.6 1.44-.6.56 0 1.027.2 1.4.6.4.373.6.84.6 1.4 0 .56-.2 1.04-.6 1.44-.347.347-.76.533-1.24.56.48.053.893.253 1.24.6.4.373.6.84.6 1.4 0 .56-.2 1.04-.6 1.44-.347.347-.76.533-1.24.56.48.053.893.253 1.24.6.4.373.6.84.6 1.4 0 .56-.2 1.04-.6 1.44-.347.347-.76.533-1.24.56.48.053.893.253 1.24.6.4.373.6.84.6 1.4 0 .56-.2 1.04-.6 1.44-.347.347-.76.533-1.24.56.48.053.893.253 1.24.6.4.373.6.84.6 1.4 0 .56-.2 1.04-.6 1.44-.373.373-.84.56-1.4.56-.56 0-1.04-.187-1.44-.56-.373-.4-.56-.88-.56-1.44 0-.56.187-1.027.56-1.4.347-.347.76-.547 1.24-.6a1.846 1.846 0 01-1.24-.56c-.373-.4-.56-.88-.56-1.44zm23.984 0c0-.56.187-1.027.56-1.4.347-.347.76-.547 1.24-.6a1.846 1.846 0 01-1.24-.56c-.373-.4-.56-.88-.56-1.44 0-.56.187-1.027.56-1.4.347-.347.76-.547 1.24-.6a1.846 1.846 0 01-1.24-.56 1.85 1.85 0 01-.56-1.24c-.053.48-.253.893-.6 1.24-.373.373-.84.56-1.4.56-.56 0-1.04-.187-1.44-.56-.373-.4-.56-.88-.56-1.44 0-.56.187-1.027.56-1.4.4-.4.88-.6 1.44-.6.56 0 1.027.2 1.4.6.4.373.6.84.6 1.4 0-.56.187-1.027.56-1.4.347-.347.76-.547 1.24-.6a1.846 1.846 0 01-1.24-.56c-.373-.4-.56-.88-.56-1.44 0-.56.187-1.027.56-1.4.4-.4.88-.6 1.44-.6.56 0 1.027.2 1.4.6.4.373.6.84.6 1.4 0 .56-.2 1.04-.6 1.44-.346.347-.76.533-1.24.56.48.053.894.253 1.24.6.4.373.6.84.6 1.4 0 .56-.2 1.04-.6 1.44-.346.347-.76.533-1.24.56.48.053.894.253 1.24.6.4.373.6.84.6 1.4 0 .56-.2 1.04-.6 1.44-.346.347-.76.533-1.24.56.48.053.894.253 1.24.6.4.373.6.84.6 1.4 0 .56-.2 1.04-.6 1.44-.346.347-.76.533-1.24.56.48.053.894.253 1.24.6.4.373.6.84.6 1.4 0 .56-.2 1.04-.6 1.44-.373.373-.84.56-1.4.56-.56 0-1.04-.187-1.44-.56-.373-.4-.56-.88-.56-1.44 0-.56.187-1.027.56-1.4.347-.347.76-.547 1.24-.6a1.846 1.846 0 01-1.24-.56c-.373-.4-.56-.88-.56-1.44zm-16 0c0-.56.187-1.027.56-1.4.347-.347.76-.547 1.24-.6a1.846 1.846 0 01-1.24-.56c-.373-.4-.56-.88-.56-1.44 0-.56.187-1.027.56-1.4.347-.347.76-.547 1.24-.6a1.846 1.846 0 01-1.24-.56c-.373-.4-.56-.88-.56-1.44 0-.56.187-1.027.56-1.4.347-.347.76-.547 1.24-.6a1.846 1.846 0 01-1.24-.56c-.373-.4-.56-.88-.56-1.44 0-.56.187-1.027.56-1.4.4-.4.88-.6 1.44-.6.56 0 1.027.2 1.4.6.4.373.6.84.6 1.4 0 .56-.2 1.04-.6 1.44-.346.347-.76.533-1.24.56.48.053.894.253 1.24.6.4.373.6.84.6 1.4 0 .56-.2 1.04-.6 1.44-.346.347-.76.533-1.24.56.48.053.894.253 1.24.6.4.373.6.84.6 1.4 0 .56-.2 1.04-.6 1.44-.346.347-.76.533-1.24.56.48.053.894.253 1.24.6.4.373.6.84.6 1.4 0-.56.187-1.027.56-1.4.4-.4.88-.6 1.44-.6.56 0 1.027.2 1.4.6.4.373.6.84.6 1.4 0 .56-.2 1.04-.6 1.44-.373.373-.84.56-1.4.56-.56 0-1.04-.187-1.44-.56a1.85 1.85 0 01-.56-1.24c-.053.48-.253.893-.6 1.24-.346.347-.76.533-1.24.56.48.053.894.253 1.24.6.4.373.6.84.6 1.4 0 .56-.2 1.04-.6 1.44-.373.373-.84.56-1.4.56-.56 0-1.04-.187-1.44-.56-.373-.4-.56-.88-.56-1.44 0-.56.187-1.027.56-1.4.347-.347.76-.547 1.24-.6a1.846 1.846 0 01-1.24-.56c-.373-.4-.56-.88-.56-1.44zm8-4c0-.56.187-1.027.56-1.4.4-.4.88-.6 1.44-.6.56 0 1.027.2 1.4.6.4.373.6.84.6 1.4 0 .56-.2 1.04-.6 1.44-.373.373-.84.56-1.4.56-.56 0-1.04-.187-1.44-.56-.373-.4-.56-.88-.56-1.44zm23.985 4c0-.56.186-1.027.56-1.4.346-.347.76-.547 1.24-.6a1.844 1.844 0 01-1.24-.56c-.374-.4-.56-.88-.56-1.44 0-.56.186-1.027.56-1.4.346-.347.76-.547 1.24-.6a1.844 1.844 0 01-1.24-.56c-.374-.4-.56-.88-.56-1.44 0-.56.186-1.027.56-1.4.346-.347.76-.547 1.24-.6a1.844 1.844 0 01-1.24-.56 1.842 1.842 0 01-.56-1.24c-.054.48-.254.893-.6 1.24-.374.373-.84.56-1.4.56-.56 0-1.04-.187-1.44-.56a1.842 1.842 0 01-.56-1.24c-.054.48-.254.893-.6 1.24-.374.373-.84.56-1.4.56-.56 0-1.04-.187-1.44-.56-.374-.4-.56-.88-.56-1.44 0-.56.186-1.027.56-1.4.4-.4.88-.6 1.44-.6.56 0 1.026.2 1.4.6.346.347.546.76.6 1.24.026-.48.213-.893.56-1.24.4-.4.88-.6 1.44-.6.56 0 1.026.2 1.4.6.346.347.546.76.6 1.24.026-.48.213-.893.56-1.24.4-.4.88-.6 1.44-.6.56 0 1.026.2 1.4.6.4.373.6.84.6 1.4 0-.56.186-1.027.56-1.4.4-.4.88-.6 1.44-.6.56 0 1.026.2 1.4.6.4.373.6.84.6 1.4 0-.56.186-1.027.56-1.4.4-.4.88-.6 1.44-.6.56 0 1.026.2 1.4.6.4.373.6.84.6 1.4 0 .56-.2 1.04-.6 1.44-.374.373-.84.56-1.4.56-.56 0-1.04-.187-1.44-.56a1.842 1.842 0 01-.56-1.24c-.054.48-.254.893-.6 1.24-.374.373-.84.56-1.4.56-.56 0-1.04-.187-1.44-.56a1.842 1.842 0 01-.56-1.24c-.054.48-.254.893-.6 1.24-.347.347-.76.533-1.24.56.48.053.893.253 1.24.6.4.373.6.84.6 1.4 0 .56-.2 1.04-.6 1.44-.347.347-.76.533-1.24.56.48.053.893.253 1.24.6.4.373.6.84.6 1.4 0 .56-.2 1.04-.6 1.44-.347.347-.76.533-1.24.56.48.053.893.253 1.24.6.4.373.6.84.6 1.4 0 .56-.2 1.04-.6 1.44-.347.347-.76.533-1.24.56.48.053.893.253 1.24.6.4.373.6.84.6 1.4 0 .56-.2 1.04-.6 1.44-.374.373-.84.56-1.4.56-.56 0-1.04-.187-1.44-.56-.374-.4-.56-.88-.56-1.44 0-.56.186-1.027.56-1.4.346-.347.76-.547 1.24-.6a1.844 1.844 0 01-1.24-.56c-.374-.4-.56-.88-.56-1.44zm27.984 4c0-.56.187-1.027.56-1.4.4-.4.88-.6 1.44-.6.56 0 1.027.2 1.4.6.4.373.6.84.6 1.4 0 .56-.2 1.04-.6 1.44-.373.373-.84.56-1.4.56-.56 0-1.04-.187-1.44-.56a1.846 1.846 0 01-.56-1.24c-.053.48-.253.893-.6 1.24-.373.373-.84.56-1.4.56-.56 0-1.04-.187-1.44-.56a1.846 1.846 0 01-.56-1.24c-.053.48-.253.893-.6 1.24-.373.373-.84.56-1.4.56-.56 0-1.04-.187-1.44-.56a1.846 1.846 0 01-.56-1.24c-.053.48-.253.893-.6 1.24-.373.373-.84.56-1.4.56-.56 0-1.04-.187-1.44-.56-.373-.4-.56-.88-.56-1.44 0-.56.187-1.027.56-1.4.347-.347.76-.547 1.24-.6a1.846 1.846 0 01-1.24-.56c-.373-.4-.56-.88-.56-1.44 0-.56.187-1.027.56-1.4.347-.347.76-.547 1.24-.6a1.846 1.846 0 01-1.24-.56c-.373-.4-.56-.88-.56-1.44 0-.56.187-1.027.56-1.4.347-.347.76-.547 1.24-.6a1.846 1.846 0 01-1.24-.56c-.373-.4-.56-.88-.56-1.44 0-.56.187-1.027.56-1.4.347-.347.76-.547 1.24-.6a1.846 1.846 0 01-1.24-.56c-.373-.4-.56-.88-.56-1.44 0-.56.187-1.027.56-1.4.4-.4.88-.6 1.44-.6.56 0 1.027.2 1.4.6.4.373.6.84.6 1.4 0 .56-.2 1.04-.6 1.44-.347.347-.76.533-1.24.56.48.053.893.253 1.24.6.4.373.6.84.6 1.4 0 .56-.2 1.04-.6 1.44-.347.347-.76.533-1.24.56.48.053.893.253 1.24.6.4.373.6.84.6 1.4 0-.56.187-1.027.56-1.4.4-.4.88-.6 1.44-.6.56 0 1.027.2 1.4.6.4.373.6.84.6 1.4 0-.56.187-1.027.56-1.4.4-.4.88-.6 1.44-.6.56 0 1.027.2 1.4.6.4.373.6.84.6 1.4 0-.56.187-1.027.56-1.4.4-.4.88-.6 1.44-.6.56 0 1.027.2 1.4.6.4.373.6.84.6 1.4 0 .56-.2 1.04-.6 1.44-.373.373-.84.56-1.4.56-.56 0-1.04-.187-1.44-.56a1.846 1.846 0 01-.56-1.24c-.053.48-.253.893-.6 1.24-.373.373-.84.56-1.4.56-.56 0-1.04-.187-1.44-.56a1.846 1.846 0 01-.56-1.24c-.053.48-.253.893-.6 1.24-.373.373-.84.56-1.4.56-.56 0-1.04-.187-1.44-.56a1.846 1.846 0 01-.56-1.24c-.053.48-.253.893-.6 1.24s-.76.533-1.24.56c.48.053.893.253 1.24.6.4.373.6.84.6 1.4 0 .56-.2 1.04-.6 1.44-.347.347-.76.533-1.24.56.48.053.893.253 1.24.6.4.373.6.84.6 1.4 0-.56.187-1.027.56-1.4.4-.4.88-.6 1.44-.6.56 0 1.027.2 1.4.6.4.373.6.84.6 1.4 0-.56.187-1.027.56-1.4.4-.4.88-.6 1.44-.6.56 0 1.027.2 1.4.6.4.373.6.84.6 1.4zm4-4c0-.56.187-1.027.56-1.4.4-.4.88-.6 1.44-.6.56 0 1.027.2 1.4.6.4.373.6.84.6 1.4 0 .56-.2 1.04-.6 1.44-.373.373-.84.56-1.4.56-.56 0-1.04-.187-1.44-.56-.373-.4-.56-.88-.56-1.44zM47 216c0-.56.187-1.027.56-1.4a2.02 2.02 0 011.24-.6 1.846 1.846 0 01-1.24-.56c-.373-.4-.56-.88-.56-1.44 0-.56.187-1.027.56-1.4a2.02 2.02 0 011.24-.6 1.846 1.846 0 01-1.24-.56c-.373-.4-.56-.88-.56-1.44 0-.56.187-1.027.56-1.4.4-.4.88-.6 1.44-.6.56 0 1.027.2 1.4.6.4.373.6.84.6 1.4 0-.56.187-1.027.56-1.4a2.02 2.02 0 011.24-.6 1.846 1.846 0 01-1.24-.56c-.373-.4-.56-.88-.56-1.44 0-.56.187-1.027.56-1.4.4-.4.88-.6 1.44-.6.56 0 1.027.2 1.4.6.4.373.6.84.6 1.4 0 .56-.2 1.04-.6 1.44-.347.347-.76.533-1.24.56.48.053.893.253 1.24.6s.547.76.6 1.24c.027-.48.213-.893.56-1.24.4-.4.88-.6 1.44-.6.56 0 1.027.2 1.4.6.347.347.547.76.6 1.24.027-.48.213-.893.56-1.24.4-.4.88-.6 1.44-.6.56 0 1.027.2 1.4.6.4.373.6.84.6 1.4 0 .56-.2 1.04-.6 1.44-.373.373-.84.56-1.4.56-.56 0-1.04-.187-1.44-.56a1.846 1.846 0 01-.56-1.24c-.053.48-.253.893-.6 1.24-.373.373-.84.56-1.4.56-.56 0-1.04-.187-1.44-.56a1.846 1.846 0 01-.56-1.24c-.053.48-.253.893-.6 1.24-.373.373-.84.56-1.4.56-.56 0-1.04-.187-1.44-.56a1.846 1.846 0 01-.56-1.24c-.053.48-.253.893-.6 1.24s-.76.533-1.24.56c.48.053.893.253 1.24.6.4.373.6.84.6 1.4 0 .56-.2 1.04-.6 1.44-.347.347-.76.533-1.24.56.48.053.893.253 1.24.6.4.373.6.84.6 1.4 0 .56-.2 1.04-.6 1.44-.347.347-.76.533-1.24.56.48.053.893.253 1.24.6.4.373.6.84.6 1.4 0 .56-.2 1.04-.6 1.44-.373.373-.84.56-1.4.56-.56 0-1.04-.187-1.44-.56-.373-.4-.56-.88-.56-1.44 0-.56.187-1.027.56-1.4a2.02 2.02 0 011.24-.6 1.846 1.846 0 01-1.24-.56c-.373-.4-.56-.88-.56-1.44zm16 0c0-.56.187-1.027.56-1.4a2.02 2.02 0 011.24-.6 1.846 1.846 0 01-1.24-.56c-.373-.4-.56-.88-.56-1.44 0-.56.187-1.027.56-1.4.4-.4.88-.6 1.44-.6.56 0 1.027.2 1.4.6.4.373.6.84.6 1.4 0 .56-.2 1.04-.6 1.44-.347.347-.76.533-1.24.56.48.053.893.253 1.24.6.4.373.6.84.6 1.4 0 .56-.2 1.04-.6 1.44-.347.347-.76.533-1.24.56.48.053.893.253 1.24.6.4.373.6.84.6 1.4 0 .56-.2 1.04-.6 1.44-.373.373-.84.56-1.4.56-.56 0-1.04-.187-1.44-.56-.373-.4-.56-.88-.56-1.44 0-.56.187-1.027.56-1.4a2.02 2.02 0 011.24-.6 1.846 1.846 0 01-1.24-.56c-.373-.4-.56-.88-.56-1.44zm-4 8c0-.56.187-1.027.56-1.4.4-.4.88-.6 1.44-.6.56 0 1.027.2 1.4.6.4.373.6.84.6 1.4 0 .56-.2 1.04-.6 1.44-.373.373-.84.56-1.4.56-.56 0-1.04-.187-1.44-.56a1.846 1.846 0 01-.56-1.24c-.053.48-.253.893-.6 1.24-.373.373-.84.56-1.4.56-.56 0-1.04-.187-1.44-.56a1.846 1.846 0 01-.56-1.24c-.053.48-.253.893-.6 1.24-.373.373-.84.56-1.4.56-.56 0-1.04-.187-1.44-.56-.373-.4-.56-.88-.56-1.44 0-.56.187-1.027.56-1.4.4-.4.88-.6 1.44-.6.56 0 1.027.2 1.4.6.347.347.547.76.6 1.24.027-.48.213-.893.56-1.24.4-.4.88-.6 1.44-.6.56 0 1.027.2 1.4.6.4.373.6.84.6 1.4zm-4-24c0-.56.187-1.027.56-1.4.4-.4.88-.6 1.44-.6.56 0 1.027.2 1.4.6.347.347.547.76.6 1.24.027-.48.213-.893.56-1.24.4-.4.88-.6 1.44-.6.56 0 1.027.2 1.4.6.4.373.6.84.6 1.4 0 .56-.2 1.04-.6 1.44-.373.373-.84.56-1.4.56-.56 0-1.04-.187-1.44-.56a1.846 1.846 0 01-.56-1.24c-.053.48-.253.893-.6 1.24-.373.373-.84.56-1.4.56-.56 0-1.04-.187-1.44-.56-.373-.4-.56-.88-.56-1.44zm15.984 8c0-.56.187-1.027.56-1.4.4-.4.88-.6 1.44-.6.534 0 .987.173 1.36.52.374.347.587.787.64 1.32.054-.533.267-.973.64-1.32.374-.347.827-.52 1.36-.52.534 0 .987.173 1.36.52.347.347.56.773.64 1.28.054-.507.267-.933.64-1.28.374-.347.827-.52 1.36-.52.56 0 1.027.2 1.4.6.4.373.6.84.6 1.4 0-.56.187-1.027.56-1.4.4-.4.88-.6 1.44-.6.56 0 1.027.2 1.4.6.4.373.6.84.6 1.4 0 .56-.2 1.04-.6 1.44-.373.373-.84.56-1.4.56-.533 0-.986-.173-1.36-.52-.373-.32-.586-.747-.64-1.28-.08.533-.293.96-.64 1.28-.373.347-.826.52-1.36.52-.533 0-.986-.173-1.36-.52-.373-.32-.586-.747-.64-1.28-.08.533-.293.96-.64 1.28-.373.347-.826.52-1.36.52-.533 0-.986-.173-1.36-.52-.373-.32-.586-.747-.64-1.28-.08.507-.293.92-.64 1.24a1.91 1.91 0 01-1.16.56c.507.08.934.293 1.28.64.347.373.52.827.52 1.36 0 .533-.173.987-.52 1.36a1.975 1.975 0 01-1.28.64c.507.08.934.293 1.28.64.347.373.52.827.52 1.36 0 .533-.173.987-.52 1.36a1.975 1.975 0 01-1.28.64c.454.08.84.293 1.16.64.347.32.56.707.64 1.16.054-.507.267-.933.64-1.28.374-.347.827-.52 1.36-.52.534 0 .987.173 1.36.52.374.347.587.787.64 1.32.054-.533.267-.973.64-1.32.374-.347.827-.52 1.36-.52.56 0 1.027.2 1.4.6.4.373.6.84.6 1.4 0-.56.187-1.027.56-1.4.4-.4.88-.6 1.44-.6.56 0 1.027.2 1.4.6.4.373.6.84.6 1.4 0 .56-.2 1.04-.6 1.44-.373.373-.84.56-1.4.56-.533 0-.986-.173-1.36-.52-.373-.32-.586-.747-.64-1.28-.08.533-.293.96-.64 1.28-.373.347-.826.52-1.36.52-.533 0-.986-.173-1.36-.52-.373-.32-.586-.747-.64-1.28-.08.533-.293.96-.64 1.28-.373.347-.826.52-1.36.52-.533 0-.986-.173-1.36-.52-.373-.32-.586-.747-.64-1.28-.08.507-.293.92-.64 1.24a1.91 1.91 0 01-1.16.56c.507.08.934.293 1.28.64.347.373.52.827.52 1.36 0 .56-.2 1.04-.6 1.44-.373.373-.84.56-1.4.56-.56 0-1.04-.187-1.44-.56-.373-.4-.56-.88-.56-1.44 0-.533.174-.987.52-1.36.32-.347.747-.56 1.28-.64-.533-.053-.96-.267-1.28-.64a1.926 1.926 0 01-.52-1.36c0-.533.174-.987.52-1.36.32-.347.747-.56 1.28-.64-.533-.053-.96-.267-1.28-.64a1.926 1.926 0 01-.52-1.36c0-.533.174-.987.52-1.36.32-.347.747-.56 1.28-.64-.533-.053-.96-.267-1.28-.64a1.926 1.926 0 01-.52-1.36c0-.533.174-.987.52-1.36.32-.347.747-.56 1.28-.64-.533-.053-.96-.267-1.28-.64a1.926 1.926 0 01-.52-1.36zm16 8c0-.533.174-.987.52-1.36.32-.347.747-.56 1.28-.64-.533-.053-.96-.267-1.28-.64a1.926 1.926 0 01-.52-1.36c0-.56.187-1.027.56-1.4.4-.4.88-.6 1.44-.6.56 0 1.027.2 1.4.6.4.373.6.84.6 1.4 0 .533-.173.987-.52 1.36a1.975 1.975 0 01-1.28.64c.507.08.934.293 1.28.64.347.373.52.827.52 1.36 0 .56-.2 1.04-.6 1.44-.373.373-.84.56-1.4.56-.56 0-1.04-.187-1.44-.56-.373-.4-.56-.88-.56-1.44zm23.985 4c0-.56.186-1.027.56-1.4.346-.347.76-.547 1.24-.6a1.844 1.844 0 01-1.24-.56c-.374-.4-.56-.88-.56-1.44 0-.56.186-1.027.56-1.4.346-.347.76-.547 1.24-.6a1.844 1.844 0 01-1.24-.56 1.842 1.842 0 01-.56-1.24c-.054.48-.254.893-.6 1.24-.374.373-.84.56-1.4.56-.56 0-1.04-.187-1.44-.56-.374-.4-.56-.88-.56-1.44 0-.56.186-1.027.56-1.4.4-.4.88-.6 1.44-.6.56 0 1.026.2 1.4.6.4.373.6.84.6 1.4 0-.56.186-1.027.56-1.4.346-.347.76-.547 1.24-.6a1.844 1.844 0 01-1.24-.56c-.374-.4-.56-.88-.56-1.44 0-.56.186-1.027.56-1.4.4-.4.88-.6 1.44-.6.56 0 1.026.2 1.4.6.4.373.6.84.6 1.4 0 .56-.2 1.04-.6 1.44-.347.347-.76.533-1.24.56.48.053.893.253 1.24.6.4.373.6.84.6 1.4 0 .56-.2 1.04-.6 1.44-.347.347-.76.533-1.24.56.48.053.893.253 1.24.6.4.373.6.84.6 1.4 0 .56-.2 1.04-.6 1.44-.347.347-.76.533-1.24.56.48.053.893.253 1.24.6.4.373.6.84.6 1.4 0 .56-.2 1.04-.6 1.44-.347.347-.76.533-1.24.56.48.053.893.253 1.24.6.4.373.6.84.6 1.4 0 .56-.2 1.04-.6 1.44-.374.373-.84.56-1.4.56-.56 0-1.04-.187-1.44-.56-.374-.4-.56-.88-.56-1.44 0-.56.186-1.027.56-1.4.346-.347.76-.547 1.24-.6a1.844 1.844 0 01-1.24-.56c-.374-.4-.56-.88-.56-1.44zm-16 0c0-.56.186-1.027.56-1.4a2.02 2.02 0 011.24-.6 1.846 1.846 0 01-1.24-.56c-.374-.4-.56-.88-.56-1.44 0-.56.186-1.027.56-1.4a2.02 2.02 0 011.24-.6 1.846 1.846 0 01-1.24-.56c-.374-.4-.56-.88-.56-1.44 0-.56.186-1.027.56-1.4a2.02 2.02 0 011.24-.6 1.846 1.846 0 01-1.24-.56c-.374-.4-.56-.88-.56-1.44 0-.56.186-1.027.56-1.4.4-.4.88-.6 1.44-.6.56 0 1.026.2 1.4.6.4.373.6.84.6 1.4 0 .56-.2 1.04-.6 1.44-.347.347-.76.533-1.24.56.48.053.893.253 1.24.6.4.373.6.84.6 1.4 0 .56-.2 1.04-.6 1.44-.347.347-.76.533-1.24.56.48.053.893.253 1.24.6.4.373.6.84.6 1.4 0 .56-.2 1.04-.6 1.44-.347.347-.76.533-1.24.56.48.053.893.253 1.24.6.4.373.6.84.6 1.4 0-.56.186-1.027.56-1.4.4-.4.88-.6 1.44-.6.56 0 1.026.2 1.4.6.4.373.6.84.6 1.4 0 .56-.2 1.04-.6 1.44-.374.373-.84.56-1.4.56-.56 0-1.04-.187-1.44-.56a1.846 1.846 0 01-.56-1.24c-.054.48-.254.893-.6 1.24-.347.347-.76.533-1.24.56.48.053.893.253 1.24.6.4.373.6.84.6 1.4 0 .56-.2 1.04-.6 1.44-.374.373-.84.56-1.4.56-.56 0-1.04-.187-1.44-.56-.374-.4-.56-.88-.56-1.44 0-.56.186-1.027.56-1.4a2.02 2.02 0 011.24-.6 1.846 1.846 0 01-1.24-.56c-.374-.4-.56-.88-.56-1.44zm8-4c0-.56.186-1.027.56-1.4.4-.4.88-.6 1.44-.6.56 0 1.026.2 1.4.6.4.373.6.84.6 1.4 0 .56-.2 1.04-.6 1.44-.374.373-.84.56-1.4.56-.56 0-1.04-.187-1.44-.56-.374-.4-.56-.88-.56-1.44zm19.984 4c0-.56.187-1.027.56-1.4.4-.4.88-.6 1.44-.6.56 0 1.027.2 1.4.6.4.373.6.84.6 1.4 0-.56.187-1.027.56-1.4.347-.347.76-.547 1.24-.6a1.846 1.846 0 01-1.24-.56c-.373-.4-.56-.88-.56-1.44 0-.56.187-1.027.56-1.4.347-.347.76-.547 1.24-.6a1.846 1.846 0 01-1.24-.56c-.373-.4-.56-.88-.56-1.44 0-.56.187-1.027.56-1.4.347-.347.76-.547 1.24-.6a1.846 1.846 0 01-1.24-.56 1.846 1.846 0 01-.56-1.24c-.053.48-.253.893-.6 1.24-.373.373-.84.56-1.4.56-.56 0-1.04-.187-1.44-.56-.373-.4-.56-.88-.56-1.44 0-.56.187-1.027.56-1.4.4-.4.88-.6 1.44-.6.56 0 1.027.2 1.4.6.347.347.547.76.6 1.24.027-.48.213-.893.56-1.24.347-.347.76-.547 1.24-.6a1.846 1.846 0 01-1.24-.56c-.373-.4-.56-.88-.56-1.44 0-.56.187-1.027.56-1.4.4-.4.88-.6 1.44-.6.56 0 1.027.2 1.4.6.4.373.6.84.6 1.4 0 .56-.2 1.04-.6 1.44-.347.347-.76.533-1.24.56.48.053.893.253 1.24.6s.547.76.6 1.24c.027-.48.213-.893.56-1.24.4-.4.88-.6 1.44-.6.56 0 1.027.2 1.4.6.4.373.6.84.6 1.4 0 .56-.2 1.04-.6 1.44-.373.373-.84.56-1.4.56-.56 0-1.04-.187-1.44-.56a1.846 1.846 0 01-.56-1.24c-.053.48-.253.893-.6 1.24s-.76.533-1.24.56c.48.053.893.253 1.24.6.4.373.6.84.6 1.4 0 .56-.2 1.04-.6 1.44-.347.347-.76.533-1.24.56.48.053.893.253 1.24.6.4.373.6.84.6 1.4 0 .56-.2 1.04-.6 1.44-.347.347-.76.533-1.24.56.48.053.893.253 1.24.6.4.373.6.84.6 1.4 0-.56.187-1.027.56-1.4.4-.4.88-.6 1.44-.6.56 0 1.027.2 1.4.6.4.373.6.84.6 1.4 0 .56-.2 1.04-.6 1.44-.373.373-.84.56-1.4.56-.56 0-1.04-.187-1.44-.56a1.846 1.846 0 01-.56-1.24c-.053.48-.253.893-.6 1.24s-.76.533-1.24.56c.48.053.893.253 1.24.6.4.373.6.84.6 1.4 0 .56-.2 1.04-.6 1.44-.373.373-.84.56-1.4.56-.56 0-1.04-.187-1.44-.56-.373-.4-.56-.88-.56-1.44 0-.56.187-1.027.56-1.4.347-.347.76-.547 1.24-.6a1.846 1.846 0 01-1.24-.56 1.846 1.846 0 01-.56-1.24c-.053.48-.253.893-.6 1.24-.373.373-.84.56-1.4.56-.56 0-1.04-.187-1.44-.56-.373-.4-.56-.88-.56-1.44zm-4-8c0-.56.187-1.027.56-1.4.4-.4.88-.6 1.44-.6.56 0 1.027.2 1.4.6.4.373.6.84.6 1.4 0 .56-.2 1.04-.6 1.44-.347.347-.76.533-1.24.56.48.053.893.253 1.24.6.4.373.6.84.6 1.4 0 .56-.2 1.04-.6 1.44-.373.373-.84.56-1.4.56-.56 0-1.04-.187-1.44-.56-.373-.4-.56-.88-.56-1.44 0-.56.187-1.027.56-1.4.347-.347.76-.547 1.24-.6a1.846 1.846 0 01-1.24-.56c-.373-.4-.56-.88-.56-1.44zm16 0c0-.56.187-1.027.56-1.4.4-.4.88-.6 1.44-.6.56 0 1.027.2 1.4.6.4.373.6.84.6 1.4 0 .56-.2 1.04-.6 1.44-.347.347-.76.533-1.24.56.48.053.893.253 1.24.6.4.373.6.84.6 1.4 0 .56-.2 1.04-.6 1.44-.373.373-.84.56-1.4.56-.56 0-1.04-.187-1.44-.56-.373-.4-.56-.88-.56-1.44 0-.56.187-1.027.56-1.4.347-.347.76-.547 1.24-.6a1.846 1.846 0 01-1.24-.56c-.373-.4-.56-.88-.56-1.44z" fill="#000"/><path d="M409 30H228.151c-8.284 0-15 6.716-15 15v69.896c0 8.284-6.716 15-15 15H42c-8.284 0-15 6.715-15 15V232c0 8.284 6.716 15 15 15h367c8.284 0 15-6.716 15-15V45c0-8.284-6.716-15-15-15z" stroke="#000"/><path d="M438 1H201.5c-8.284 0-15 6.716-15 15v71.365c0 8.285-6.716 15-15 15H16c-8.284 0-15 6.716-15 15V256c0 8.284 6.716 15 15 15h422c8.284 0 15-6.716 15-15V16c0-8.284-6.716-15-15-15zM421 240.5l28 25.823M419.5 34l30-27.5M219 32.746L190 6m19.5 118.5l-28.5-26M33 133.272L5 107.449m27.5 136.033L7 267" stroke="#000"/><path d="M338.5 75v113.5H271m0 0l13.5 13.5M271 188.5l13.5-13.5" stroke="#000"/></svg></svg>